<svg width="161" height="192" viewBox="0 0 161 192" xmlns="http://www.w3.org/2000/svg" xmlns:xlink="http://www.w3.org/1999/xlink">
    <defs>
        <path id="a" d="M0 .018v92.72h160.595V.018z"/>
    </defs>
    <g fill="none" fill-rule="evenodd">
        <g transform="translate(0 98.924)">
            <mask id="b" fill="#fff">
                <use xlink:href="#a"/>
            </mask>
            <path d="M79.249 91.533l17.283-9.98 22.346-12.9 39.63-22.881c1.392-.803 2.088-1.862 2.088-2.922 0-1.058-.696-2.12-2.09-2.922l-17.282-9.978-32.47-18.747-17.283-9.98C90.077.42 88.243.018 86.409.018c-1.835 0-3.67.402-5.061 1.204L41.717 24.104l-22.344 12.9-17.286 9.98c-2.783 1.607-2.783 4.235-.001 5.844l17.285 9.98 32.471 18.746 17.286 9.98c2.783 1.606 7.337 1.605 10.12 0" fill="#FBE1B2" opacity=".5" mask="url(#b)"/>
        </g>
        <path d="M29.781 139.956L51.4 152.437l16.72 9.654c2.695 1.555 7.102 1.555 9.795 0l16.72-9.654 21.62-12.48 21.617-12.482 16.721-9.654c1.347-.778 2.02-1.802 2.02-2.827 0-1.026-.673-2.05-2.02-2.827l-16.72-9.654L94.636 77.55 51.4 102.514l-21.617 12.48v.001l-21.619 12.48 21.617 12.481" stroke="#33475C" stroke-width="5" stroke-linecap="round" stroke-linejoin="round"/>
        <path stroke="#33475C" stroke-width="5" stroke-linecap="round" stroke-linejoin="round" d="M143.256 105.784l-86.19 49.761-48.902-28.07L94.637 77.55z"/>
        <path d="M73.018 90.032l-21.617 12.481-21.618 12.48v.001l-21.62 12.48V58.243c0-3.11 2.205-6.926 4.898-8.482l16.722-9.655L51.4 27.625l21.618-12.48L89.74 5.49c1.286-.742 2.46-.84 3.336-.403.96.48 1.562 1.604 1.562 3.23V77.55L73.018 90.032" stroke="#33475C" stroke-width="5" stroke-linecap="round" stroke-linejoin="round"/>
        <path d="M86.711 14.444c1.616-.933 2.938-.169 2.938 1.696v54.726c0 1.865-1.322 4.155-2.938 5.09l-70.62 40.771c-1.617.934-2.94.17-2.94-1.696V60.307c0-1.867 1.323-4.157 2.94-5.089l70.62-40.774z" stroke="#33475C" stroke-width="5" stroke-linecap="round" stroke-linejoin="round"/>
        <path stroke="#33475C" stroke-width="5" stroke-linecap="round" stroke-linejoin="round" d="M34.447 70.724l86.19-49.762-26 56.588-86.473 49.925z"/>
        <path stroke="#33475C" stroke-width="5" stroke-linecap="round" stroke-linejoin="round" d="M94.637 77.55v56.303l48.618-28.07zM93.075 5.088l-4.524-2.262c-.875-.438-2.049-.34-3.335.402l-16.721 9.656-21.62 12.48L25.26 37.846 8.538 47.499C5.844 49.054 3.64 52.87 3.64 55.98v64.773c.04 1.07.496 4.41 4.522 6.721l.001.001V58.243c0-3.11 2.203-6.927 4.897-8.482l16.721-9.653L51.4 27.626l21.619-12.48 16.72-9.657c1.287-.74 2.46-.839 3.336-.401z"/>
        <path stroke="#33475C" stroke-width="5" stroke-linecap="round" stroke-linejoin="round" d="M8.164 127.475l48.901 28.07 37.572-21.692V77.55z"/>
        <path stroke="#33475C" stroke-width="5" stroke-linecap="round" stroke-linejoin="round" d="M94.637 77.55v.002-.001L8.164 127.477l48.9 28.069 86.191-49.762z"/>
        <path d="M29.46 124.211l-6.677 3.856c-.377.218-1.042.19-1.478-.063-.436-.25-.483-.634-.106-.851l6.679-3.857c.377-.217 1.04-.19 1.476.063.435.25.484.635.106.852zM34.983 134.379l-.528.305c-.435.251-1.147.251-1.583 0-.435-.252-.435-.663 0-.915l.528-.305c.435-.25 1.148-.25 1.583 0 .436.252.436.663 0 .915zM54.97 136.197l-1.532.883c-.376.218-1.041.19-1.478-.06-.435-.252-.483-.636-.106-.854l1.532-.884c.378-.217 1.042-.19 1.477.06.436.253.483.636.106.855zM60.512 132.996l-3.247 1.875c-.378.218-1.043.19-1.479-.06-.434-.252-.481-.636-.105-.854l3.247-1.875c.377-.217 1.042-.19 1.477.061.436.253.483.636.107.853zM62.886 131.625l-.344.2c-.377.217-1.042.19-1.477-.063-.435-.25-.483-.634-.106-.853l.345-.199c.377-.217 1.04-.19 1.476.063.435.25.484.635.106.852zM67.241 129.112l-2.324 1.341c-.377.217-1.042.19-1.477-.061-.436-.252-.483-.636-.106-.854l2.324-1.341c.377-.217 1.041-.19 1.477.06.435.253.483.638.106.855zM68.622 128.01c.145.083.145.219 0 .305-.146.084-.382.084-.527 0-.146-.086-.146-.222 0-.306.145-.084.38-.084.527 0zM77.797 123.016l-7.865 4.542c-.377.217-1.042.19-1.479-.061-.434-.252-.481-.637-.105-.854l7.866-4.54c.377-.218 1.042-.19 1.477.06.435.253.483.636.106.853zM80.567 121.417l-.344.2c-.377.216-1.041.19-1.477-.063-.435-.251-.483-.635-.106-.853l.345-.199c.377-.217 1.04-.19 1.476.062.436.251.484.636.106.853zM31.261 127.623l-.263.153c-.435.25-1.148.25-1.583 0-.436-.251-.436-.663 0-.915l.264-.152c.435-.251 1.147-.251 1.582 0 .437.251.437.663 0 .914zM27.932 129.546l-1.188.685c-.435.251-1.147.251-1.583 0-.436-.251-.436-.661 0-.914l1.188-.686c.435-.25 1.147-.25 1.583 0 .436.252.436.663 0 .915zM36.513 124.591l-2.455 1.418c-.377.218-1.042.19-1.477-.062-.436-.25-.483-.634-.105-.853l2.455-1.418c.377-.217 1.04-.19 1.476.062.436.252.484.636.106.853zM38.806 123.268l-.344.198c-.378.218-1.043.191-1.477-.061-.435-.252-.483-.635-.106-.853l.345-.199c.376-.217 1.04-.19 1.476.061.435.252.484.636.106.854zM46.938 118.573l-6.018 3.474c-.378.219-1.043.19-1.478-.06-.435-.252-.483-.636-.106-.853l6.019-3.476c.376-.217 1.041-.19 1.477.062.435.251.483.636.106.853zM48.967 117.401l-.345.2c-.377.216-1.042.19-1.477-.062-.436-.252-.483-.634-.106-.854l.345-.198c.376-.218 1.041-.19 1.477.062.435.252.482.635.106.852zM51.077 116.183l-.343.199c-.378.217-1.043.19-1.477-.062-.436-.252-.484-.635-.107-.853l.344-.199c.378-.217 1.042-.19 1.477.061.436.252.484.636.106.854zM59.34 111.412l-6.148 3.551c-.378.217-1.043.19-1.478-.062-.436-.251-.483-.636-.107-.853l6.15-3.551c.378-.217 1.042-.19 1.478.062.435.251.484.636.106.853zM58.825 138.422l-1.531.885c-.377.218-1.042.19-1.478-.062-.436-.25-.483-.635-.107-.852l1.533-.886c.378-.217 1.041-.19 1.477.062.435.251.483.636.106.853zM64.367 135.223l-3.247 1.874c-.377.219-1.042.19-1.478-.06-.434-.253-.482-.636-.105-.853l3.247-1.876c.377-.218 1.042-.19 1.477.062.435.25.483.635.106.853zM66.742 133.85l-.344.2c-.378.217-1.043.19-1.477-.061-.435-.252-.483-.635-.106-.853l.345-.199c.376-.217 1.04-.19 1.475.061.436.252.485.636.107.853zM71.097 131.337l-2.324 1.343c-.377.217-1.042.188-1.477-.063-.436-.25-.483-.635-.107-.852l2.324-1.343c.378-.217 1.042-.19 1.477.062.436.253.483.636.107.853zM72.477 130.235c.146.084.146.22 0 .305-.146.084-.38.084-.527 0-.146-.085-.146-.221 0-.305.146-.084.381-.084.527 0zM85.215 123.186l-11.427 6.598c-.378.217-1.042.19-1.479-.062-.435-.251-.482-.634-.106-.853l11.43-6.598c.376-.217 1.04-.19 1.475.061.437.253.485.636.107.854zM88.25 121.434l-.344.199c-.378.217-1.043.19-1.477-.061-.435-.253-.483-.636-.106-.854l.345-.2c.376-.217 1.04-.19 1.475.063.436.25.485.635.107.853zM82.891 128.98l-1.531.884c-.378.219-1.043.19-1.478-.06-.436-.253-.483-.636-.107-.853l1.533-.886c.376-.217 1.041-.19 1.477.061.435.253.483.637.106.854zM88.433 125.78l-3.247 1.875c-.378.218-1.043.19-1.478-.06-.434-.252-.483-.637-.105-.854l3.247-1.875c.376-.217 1.041-.19 1.476.06.436.253.484.638.107.855zM64.132 139.81l-2.983 1.722c-.377.218-1.042.19-1.477-.06-.436-.252-.483-.636-.107-.853l2.984-1.723c.377-.218 1.041-.19 1.477.062.435.25.483.635.106.853zM68.223 137.45l-2.324 1.34c-.377.218-1.042.19-1.477-.06-.436-.253-.483-.637-.107-.854l2.325-1.342c.376-.217 1.041-.19 1.477.061.435.253.483.636.106.854zM78.524 131.5L70 136.425c-.377.217-1.042.19-1.478-.063-.434-.25-.482-.635-.105-.852l8.525-4.922c.377-.217 1.041-.19 1.477.06.435.253.483.636.106.854zM42.376 134.563l-4.171 2.408c-.377.217-1.04.19-1.477-.062-.436-.25-.483-.635-.107-.853l4.172-2.408c.377-.217 1.04-.19 1.476.061.437.253.484.637.107.854zM48.314 131.135l-3.51 2.027c-.378.217-1.043.19-1.479-.061-.435-.251-.482-.636-.106-.854l3.512-2.027c.376-.217 1.041-.19 1.477.061.435.252.483.637.106.854zM50.557 129.84l-.345.199c-.376.217-1.041.19-1.477-.063-.435-.25-.483-.634-.106-.852l.345-.2c.376-.217 1.041-.19 1.477.063.435.25.483.635.106.852zM52.8 128.544l-.345.199c-.376.217-1.041.19-1.477-.061-.435-.252-.483-.635-.106-.853l.345-.199c.377-.217 1.042-.19 1.477.061.435.252.483.636.106.853zM43.626 133.537c.144.084.144.22 0 .306-.146.083-.383.083-.528 0-.146-.086-.146-.222 0-.306.145-.085.382-.085.528 0zM57.03 126.102l-1.532.885c-.377.218-1.042.19-1.477-.06-.435-.253-.484-.636-.106-.854l1.532-.885c.377-.217 1.04-.19 1.476.061.435.253.484.636.106.853zM63.408 122.421l-4.171 2.408c-.377.217-1.042.19-1.477-.062-.436-.25-.484-.635-.107-.853l4.171-2.408c.377-.217 1.042-.19 1.477.061.436.252.483.636.107.854zM36.406 129.105l-5.806 3.352c-.436.252-1.147.252-1.584 0-.435-.25-.435-.663 0-.914l5.807-3.352c.434-.25 1.148-.25 1.583 0 .435.251.435.663 0 .914zM43.135 125.22l-4.09 2.362c-.436.251-1.148.251-1.584 0-.435-.252-.435-.663 0-.915l4.091-2.361c.435-.251 1.148-.251 1.583 0 .436.25.436.663 0 .914zM48.634 122.045l-2.983 1.722c-.377.218-1.042.19-1.476-.06-.435-.252-.484-.637-.106-.854l2.983-1.723c.377-.217 1.04-.19 1.476.062.437.252.484.635.106.853zM52.725 119.683l-2.323 1.342c-.377.218-1.042.19-1.477-.062-.435-.25-.484-.635-.106-.852l2.323-1.342c.378-.218 1.041-.19 1.477.061.435.253.484.636.106.853zM63.026 113.736l-8.524 4.923c-.377.217-1.042.19-1.478-.063-.435-.25-.483-.635-.106-.852l8.526-4.923c.377-.217 1.04-.19 1.476.062.437.25.484.635.106.853zM48.21 135.647l-2.455 1.417c-.377.217-1.042.19-1.477-.061-.435-.251-.483-.636-.105-.854l2.455-1.417c.377-.217 1.04-.19 1.476.06.437.253.484.636.106.855zM50.503 134.322l-.344.2c-.377.217-1.042.19-1.477-.063-.435-.25-.483-.634-.106-.852l.345-.2c.377-.217 1.04-.19 1.476.063.435.25.484.635.106.852zM58.635 129.627l-6.018 3.475c-.377.218-1.041.19-1.478-.06-.435-.252-.483-.636-.106-.854l6.019-3.474c.378-.219 1.041-.192 1.477.06.435.253.483.636.106.853zM60.664 128.457l-.345.199c-.376.217-1.041.19-1.477-.062-.435-.251-.483-.635-.106-.853l.345-.2c.376-.216 1.041-.19 1.477.062.435.252.483.637.106.854zM62.775 127.237l-.344.2c-.378.217-1.043.19-1.477-.062-.436-.252-.483-.635-.107-.853l.345-.2c.377-.217 1.04-.19 1.476.063.436.25.484.635.107.852zM71.038 122.466l-6.149 3.551c-.378.218-1.043.19-1.478-.06-.436-.253-.483-.636-.106-.853l6.15-3.552c.377-.217 1.041-.19 1.477.061.435.253.484.636.106.853zM73.2 121.22l-.345.198c-.377.218-1.042.19-1.477-.062-.436-.25-.483-.634-.107-.853l.345-.199c.377-.217 1.042-.19 1.476.063.437.25.484.635.108.852zM75.443 119.924l-.345.199c-.377.217-1.042.19-1.477-.061-.436-.252-.483-.635-.107-.854l.345-.198c.377-.218 1.042-.191 1.477.061.436.252.483.636.107.853zM78.488 118.166l-.264.152c-.437.251-1.149.251-1.584 0-.436-.25-.436-.663 0-.914l.264-.152c.434-.251 1.147-.251 1.584 0 .435.25.435.662 0 .914zM69.307 141.275l-4.303 2.484c-.377.218-1.042.19-1.477-.062-.435-.25-.483-.635-.106-.852l4.303-2.485c.378-.217 1.042-.19 1.477.061.435.252.483.636.106.854zM74.85 138.075l-3.247 1.874c-.378.219-1.043.19-1.479-.06-.434-.252-.481-.636-.105-.853l3.247-1.876c.377-.217 1.042-.19 1.477.062.436.252.483.635.106.853zM83.873 132.865l-6.677 3.855c-.378.218-1.043.19-1.478-.061-.436-.251-.483-.635-.107-.852l6.679-3.856c.377-.217 1.041-.19 1.477.06.435.253.483.636.106.854zM34.447 70.724l86.19-49.762-26 56.588-86.473 49.925z" stroke="#33475C" stroke-width="5" stroke-linecap="round" stroke-linejoin="round"/>
        <path d="M34.884 71.124L9.427 126.093l84.77-48.942 25.184-54.812-84.497 48.785zM8.164 128.04c-.138 0-.275-.05-.381-.148-.182-.166-.235-.432-.132-.655l26.282-56.75c.05-.106.13-.194.23-.252l86.19-49.762c.215-.124.482-.096.664.071.182.167.236.43.133.654l-26 56.59c-.048.105-.129.193-.23.252L8.446 127.964c-.088.051-.186.076-.283.076z" stroke="#33475C" stroke-width="5" stroke-linecap="round" stroke-linejoin="round"/>
        <path d="M51.721 67.046l-10.52 6.025c-.594.34-.889.208-.654-.296.235-.503.913-1.191 1.506-1.532l10.521-6.024c.593-.34.888-.208.654.296-.236.502-.913 1.19-1.507 1.531zM35.972 85.856l-.831.476c-.687.393-1.057.302-.822-.2.235-.503.987-1.236 1.674-1.629l.83-.476c.687-.393 1.057-.303.822.2-.236.503-.988 1.235-1.673 1.629zM43.006 91.617l-2.413 1.382c-.593.34-.888.207-.654-.296.235-.503.913-1.192 1.506-1.533l2.414-1.382c.594-.34.888-.207.654.296-.235.503-.913 1.192-1.507 1.533zM51.737 86.617l-5.114 2.93c-.595.34-.89.206-.655-.296.234-.503.912-1.193 1.506-1.532l5.116-2.93c.593-.34.887-.208.653.296-.234.503-.912 1.192-1.506 1.532zM55.479 84.474l-.542.31c-.595.34-.889.208-.655-.295.234-.503.913-1.192 1.507-1.532l.542-.31c.594-.342.888-.208.654.295-.234.502-.913 1.192-1.506 1.532zM46.409 73.352l-.415.238c-.688.394-1.056.303-.822-.2.234-.502.987-1.236 1.674-1.627l.416-.24c.685-.393 1.055-.302.82.201-.234.502-.988 1.235-1.673 1.628zM41.163 76.356l-1.87 1.072c-.687.392-1.056.303-.822-.2.234-.504.987-1.235 1.674-1.629l1.87-1.071c.686-.394 1.056-.303.82.2-.234.502-.987 1.235-1.672 1.628zM54.682 68.615l-3.869 2.214c-.592.34-.887.208-.653-.295.235-.503.913-1.192 1.506-1.533l3.87-2.215c.593-.34.887-.207.653.296-.235.502-.913 1.192-1.507 1.533zM58.294 66.546l-.542.31c-.595.34-.889.208-.655-.295.234-.504.913-1.192 1.507-1.533l.543-.31c.593-.34.887-.208.653.296-.234.503-.912 1.192-1.506 1.532zM71.104 59.21l-9.48 5.43c-.594.34-.89.206-.654-.296.234-.503.913-1.194 1.506-1.533l9.481-5.428c.594-.342.888-.208.654.295-.235.502-.913 1.192-1.507 1.532zM74.3 57.38l-.542.31c-.594.34-.89.207-.654-.295.234-.503.913-1.193 1.507-1.534l.541-.31c.594-.34.89-.207.654.297-.234.502-.913 1.192-1.507 1.532zM77.626 55.475l-.542.31c-.595.34-.889.208-.654-.294.234-.505.912-1.193 1.506-1.534l.543-.31c.594-.34.888-.208.654.297-.235.502-.913 1.19-1.507 1.53zM90.644 48.02l-9.687 5.548c-.595.34-.89.208-.655-.295.234-.503.912-1.192 1.507-1.533l9.688-5.548c.594-.34.888-.208.654.297-.234.502-.913 1.19-1.507 1.53zM94.048 46.072l-.542.31c-.595.34-.889.207-.654-.296.234-.503.912-1.193 1.506-1.533l.543-.31c.594-.34.888-.208.654.296-.235.502-.913 1.191-1.507 1.533zM97.582 44.047l-.541.31c-.595.34-.89.208-.655-.294.234-.504.912-1.193 1.506-1.534l.542-.31c.594-.34.889-.207.654.296s-.913 1.192-1.506 1.532zM40.93 96.069l-2.412 1.382c-.594.34-.89.207-.654-.296.234-.503.913-1.192 1.506-1.533l2.413-1.38c.593-.341.889-.209.653.294-.234.503-.912 1.192-1.506 1.533zM49.66 91.07l-5.114 2.928c-.595.34-.889.207-.655-.295.235-.503.913-1.193 1.507-1.532l5.115-2.93c.594-.34.89-.208.654.296-.234.503-.913 1.192-1.507 1.532zM53.402 88.926l-.541.31c-.594.34-.89.208-.655-.295s.914-1.192 1.506-1.532l.543-.31c.594-.34.889-.208.654.295-.234.503-.913 1.192-1.507 1.532zM60.262 84.998l-3.66 2.097c-.595.339-.888.207-.653-.297.235-.503.911-1.192 1.506-1.532l3.66-2.096c.593-.34.889-.208.653.295-.234.504-.912 1.192-1.506 1.533zM41.14 99.211l-4.698 2.692c-.595.34-.888.207-.654-.296.234-.503.912-1.193 1.506-1.532l4.7-2.692c.593-.34.887-.208.653.297-.234.502-.912 1.19-1.506 1.531zM47.585 95.521l-3.66 2.097c-.594.34-.889.207-.653-.296.234-.504.911-1.192 1.506-1.533l3.66-2.096c.594-.34.888-.208.654.296-.236.503-.913 1.192-1.507 1.532zM39.468 87.117l-6.571 3.762c-.594.34-.89.208-.654-.295.234-.504.913-1.192 1.506-1.533l6.571-3.762c.594-.34.888-.207.654.296-.235.502-.913 1.192-1.506 1.532zM48.821 81.76l-5.531 3.167c-.594.34-.888.207-.654-.295.235-.503.913-1.193 1.506-1.532l5.532-3.168c.594-.34.889-.208.653.296-.234.502-.912 1.191-1.506 1.532zM52.355 79.736l-.541.31c-.595.34-.89.208-.655-.294.234-.504.912-1.193 1.506-1.533l.543-.31c.594-.34.888-.208.654.295-.234.503-.913 1.192-1.507 1.532zM55.89 77.713l-.542.31c-.595.34-.89.208-.655-.295.234-.504.913-1.192 1.506-1.534l.543-.31c.593-.34.888-.207.654.297-.235.502-.913 1.192-1.506 1.532zM41.993 85.447c-.078.168-.328.411-.557.542-.23.132-.353.102-.274-.065.078-.17.328-.412.558-.544.23-.132.351-.101.273.067zM46.363 76.642l-9.148 5.238c-.685.393-1.055.302-.82-.2.235-.503.988-1.236 1.673-1.628l9.147-5.238c.686-.393 1.056-.303.82.2-.234.502-.987 1.234-1.672 1.628zM56.964 70.57l-6.444 3.692c-.687.391-1.055.302-.821-.2.234-.503.987-1.236 1.674-1.63l6.444-3.69c.685-.393 1.055-.302.82.201-.234.502-.987 1.235-1.673 1.628zM65.627 65.61L60.928 68.3c-.595.34-.888.207-.653-.296.235-.502.911-1.193 1.506-1.533l4.7-2.69c.593-.34.888-.208.653.295-.234.502-.913 1.192-1.507 1.532zM72.072 61.92l-3.66 2.096c-.595.34-.888.206-.654-.296.235-.503.912-1.193 1.507-1.534l3.66-2.095c.593-.34.887-.207.653.296-.234.502-.912 1.192-1.506 1.532zM101.504 45.065L93.48 49.66c-.594.34-.889.208-.654-.294.234-.505.913-1.194 1.506-1.534l8.026-4.595c.594-.34.888-.208.654.295-.234.503-.913 1.192-1.507 1.533zM40.509 89.784l-3.868 2.215c-.594.34-.888.207-.654-.296.235-.502.913-1.192 1.507-1.533l3.868-2.214c.594-.34.888-.208.653.295-.234.502-.912 1.192-1.506 1.533zM44.12 87.715l-.541.31c-.594.34-.89.208-.654-.294.234-.505.913-1.193 1.507-1.534l.541-.31c.594-.34.89-.208.654.297-.234.502-.913 1.19-1.507 1.53zM56.931 80.38l-9.48 5.429c-.595.34-.889.207-.654-.297.234-.502.912-1.192 1.506-1.532l9.48-5.429c.594-.34.889-.208.654.296-.234.503-.912 1.192-1.506 1.532zM41.143 102.474l-6.778 3.881c-.595.34-.888.207-.654-.295.235-.503.912-1.193 1.507-1.534l6.778-3.881c.593-.34.889-.207.653.296-.234.502-.912 1.192-1.506 1.533zM49.874 97.474l-5.115 2.929c-.594.34-.888.207-.654-.296.234-.503.912-1.192 1.506-1.532l5.115-2.93c.594-.34.89-.207.654.296-.234.502-.913 1.192-1.506 1.533zM81.307 96.099c6.403-3.697 11.651-12.787 11.651-20.18 0-1.858-.333-3.44-.932-4.71 4.184-.368 7.141 2.722 7.141 8.273 0 7.393-5.249 16.482-11.65 20.178-4.793 2.768-8.938 1.764-10.719-2.015 1.389-.122 2.913-.626 4.51-1.546z" stroke="#33475C" stroke-width="5" stroke-linecap="round" stroke-linejoin="round"/>
        <path d="M81.243 89.83c0 2.022.697 3.433 1.832 4.085 1.131.65 2.697.544 4.442-.464 3.497-2.019 6.273-6.829 6.273-10.865 0-2.022-.697-3.435-1.832-4.087-1.131-.648-2.696-.542-4.441.466-3.497 2.017-6.274 6.827-6.274 10.865z" stroke="#33475C" stroke-width="5" stroke-linecap="round" stroke-linejoin="round"/>
        <path d="M81.307 75.403c1.745-1.008 3.31-1.113 4.441-.465l6.21 3.561c-1.132-.648-2.697-.542-4.442.465-3.497 2.019-6.273 6.829-6.273 10.866 0 2.022.698 3.434 1.832 4.085l-6.209-3.561c-1.136-.65-1.832-2.063-1.832-4.086 0-4.038 2.777-8.847 6.273-10.865zM101.688 56.36l-6.21-3.562-5.125 6.258 6.862 3.96 4.473-2.465zM98.95 66.832l5.658-1.39 6.209 3.561-4.638 3.684h-3.714zM84.556 53.865l6.208 3.561-6.496 3.753-6.209-3.563z" stroke="#33475C" stroke-width="5" stroke-linecap="round" stroke-linejoin="round"/>
        <path stroke="#33475C" stroke-width="5" stroke-linecap="round" stroke-linejoin="round" d="M78.059 57.617l-1.625 7.47 6.21 3.56 1.624-7.47zM78.471 73.062l-6.209-3.561-5.124-.34 6.208 3.562z"/>
        <path d="M76.434 65.087l6.21 3.56c-1.472 1.318-2.876 2.813-4.173 4.415L72.262 69.5c1.298-1.601 2.701-3.095 4.172-4.413zM67.137 69.161l6.208 3.562-4.592 7.956-6.21-3.563z" stroke="#33475C" stroke-width="5" stroke-linecap="round" stroke-linejoin="round"/>
        <path stroke="#33475C" stroke-width="5" stroke-linecap="round" stroke-linejoin="round" d="M62.544 77.117l2.855 4.268 6.21 3.562-2.856-4.269zM63.664 87.206l6.209 3.561-5.657 5.141-6.21-3.56z"/>
        <path stroke="#33475C" stroke-width="5" stroke-linecap="round" stroke-linejoin="round" d="M58.007 92.348l6.209 3.56v7.503l-6.21-3.561zM71.61 84.947c-.738 1.925-1.332 3.888-1.737 5.82l-6.209-3.561c.405-1.933.998-3.895 1.736-5.82l6.21 3.561zM69.873 102.02c.405 1.466.998 2.744 1.736 3.817l-5.177-2.97 3.44-.846z"/>
        <path d="M75.866 92.933c0-7.392 5.248-16.481 11.65-20.178 6.403-3.696 11.652-.667 11.652 6.726 0 7.394-5.249 16.483-11.651 20.18-6.403 3.696-11.651.665-11.651-6.728zm-5.993 9.088c.406 1.465.998 2.743 1.736 3.815l-2.856 7.569 4.592 2.65 5.126-6.257c1.298.104 2.701-.023 4.172-.404l1.626 5.594 6.496-3.75 1.624-7.471c1.471-1.318 2.875-2.812 4.173-4.413l5.126.339 4.592-7.956-2.856-4.268c.74-1.925 1.33-3.889 1.736-5.821l5.657-5.142v-7.502l-5.657 1.39c-.405-1.465-.997-2.742-1.736-3.816l2.856-7.566-4.592-2.653-5.126 6.258c-1.298-.103-2.702.023-4.173.405l-1.624-5.596-6.496 3.752-1.626 7.47c-1.47 1.317-2.874 2.812-4.172 4.414l-5.126-.339-4.592 7.955 2.856 4.269c-.738 1.926-1.33 3.888-1.736 5.82l-5.657 5.142v7.503l5.657-1.391z" stroke="#33475C" stroke-width="5" stroke-linecap="round" stroke-linejoin="round"/>
        <path stroke="#33475C" stroke-width="5" stroke-linecap="round" stroke-linejoin="round" d="M65.049 103.207l1.383-.34 5.177 2.97-2.856 7.568-6.21-3.563zM77.817 110.596l.654-.798c1.298.104 2.702-.023 4.173-.403l1.624 5.593-6.836-3.92.385-.472zM96.52 62.615c-1.286-.097-2.674.028-4.13.406l-.974-3.35 5.105 2.944zM35.599 71.905l21.466 83.64M57.065 157.242c-.757 0-1.446-.51-1.642-1.275l-21.468-83.64c-.233-.909.314-1.833 1.221-2.066.91-.238 1.834.316 2.066 1.222l21.467 83.64c.233.909-.313 1.833-1.221 2.066-.142.036-.284.053-.423.053zM106.744 115.778c.167-.097.332-.206.496-.316.34-.23.672-.49.994-.771.198-.173.393-.354.582-.545.14-.142.278-.285.412-.434.186-.207.367-.419.541-.64.29-.366.568-.748.823-1.147.255-.394.489-.801.704-1.217.217-.422.41-.853.581-1.288.104-.262.198-.523.283-.786.063-.192.119-.384.17-.575.07-.26.132-.52.183-.777.082-.42.142-.837.17-1.246.014-.197.024-.395.024-.588 0-.104-.007-.2-.012-.298.077-.04.155-.083.233-.12.34-.165.672-.288.994-.379.197-.055.391-.097.58-.124.14-.021.278-.035.414-.042.185-.009.365-.003.54.014.29.031.566.094.824.197.252.1.487.236.702.406.217.17.41.378.582.615.102.141.197.295.282.46.062.12.119.247.171.379.07.178.131.366.182.567.083.323.143.67.17 1.047.014.183.026.367.026.56 0 .194-.012.391-.026.589-.027.41-.087.827-.17 1.246-.05.258-.112.517-.182.776-.052.192-.109.383-.17.576-.086.262-.18.526-.283.786-.172.435-.365.866-.58 1.287-.217.416-.452.823-.704 1.218-.257.399-.534.781-.825 1.148-.174.22-.354.433-.539.638-.136.15-.274.294-.414.435-.189.19-.383.372-.58.545-.322.282-.654.542-.994.771-.165.111-.33.219-.498.316-.167.097-.334.18-.497.259-.34.163-.672.286-.993.377-.2.055-.393.097-.583.124-.14.021-.277.036-.412.042-.185.009-.365.003-.539-.014-.292-.031-.568-.094-.825-.197-.254-.1-.49-.236-.703-.406-.217-.17-.41-.378-.582-.615-.103-.142-.198-.295-.283-.46-.061-.12-.118-.247-.17-.379-.07-.178-.13-.366-.182-.565-.082-.325-.141-.672-.17-1.05-.006-.086-.006-.175-.01-.262.086-.044.173-.085.263-.137zM109.946 123.525v2.71c0 .632.222 1.078.582 1.286l-3.462-1.998 1.047-1.814c.575.035 1.19-.028 1.833-.184zM109.229 97.54v-.001.001zM111.061 97.357l5.685 3.282c-.573-.035-1.187.028-1.83.183l-5.687-3.282c.642-.157 1.256-.22 1.832-.183zM116.233 93.267l4.983 2.877c-.774-.449-2.037.28-2.81 1.623l-1.318 2.282-.341.59-1.831-1.057v-.786l-.34.59-3.515-2.03 1.658-2.872c.774-1.343 2.036-2.07 2.81-1.622l.704.405"/>
        <path d="M118.37 108.171c.014.181.024.366.024.56 0 .194-.01.39-.025.588-.027.41-.087.826-.17 1.246-.05.259-.112.516-.183.776-.05.193-.107.384-.17.576-.084.263-.18.525-.282.786-.17.436-.364.865-.581 1.287-.215.418-.45.824-.704 1.218-.255.398-.533.78-.823 1.147-.174.22-.355.433-.54.639-.135.15-.273.294-.414.435-.188.19-.383.372-.58.546-.323.281-.655.54-.995.77-.164.11-.33.22-.497.316-.167.098-.333.18-.497.258-.34.164-.672.286-.993.377-.2.055-.393.097-.583.125-.14.02-.277.037-.411.042-.186.01-.366.004-.54-.014-.293-.031-.569-.094-.824-.197-.255-.1-.49-.237-.704-.405-.218-.17-.41-.379-.58-.615-.105-.143-.2-.297-.285-.46-.062-.122-.119-.247-.17-.38-.07-.177-.13-.366-.182-.565-.083-.325-.142-.673-.17-1.05-.014-.182-.024-.366-.024-.56 0-.194.01-.392.024-.59.028-.41.087-.824.17-1.244.051-.259.112-.517.183-.777.05-.192.107-.382.17-.573.084-.265.179-.526.283-.788.17-.435.364-.866.581-1.286.214-.419.45-.826.704-1.22.255-.399.533-.78.823-1.146.175-.22.355-.433.54-.64.135-.147.272-.292.412-.432.19-.192.384-.375.583-.548.321-.281.652-.54.994-.77.163-.11.33-.22.496-.315.168-.098.333-.18.497-.258.34-.165.672-.288.994-.378.198-.056.392-.097.581-.126.14-.02.279-.035.413-.041.186-.01.367-.004.54.015.291.03.569.093.824.196.253.1.489.236.702.405.219.172.411.379.583.616.103.142.198.295.283.46.062.12.118.247.17.378.07.179.132.368.182.567.083.323.143.672.17 1.05zm6.983-2.885v-1.146c0-.634-.223-1.08-.583-1.286-.36-.208-.858-.179-1.405.138l-2.346 1.355c-.187-.635-.44-1.198-.758-1.679l1.66-2.871c.774-1.343.774-2.8 0-3.246l-.704-.407c-.775-.448-2.037.28-2.812 1.624l-1.659 2.871c-.573-.035-1.187.027-1.83.184v-2.71c0-.632-.224-1.078-.583-1.285-.361-.208-.858-.179-1.406.138l-.993.574c-1.097.632-1.988 2.176-1.988 3.443v2.71c-.644.586-1.258 1.233-1.832 1.932l-1.658-.958c-.776-.448-2.037.28-2.813 1.623l-.702 1.218c-.775 1.343-.775 2.799 0 3.245l1.658.958c-.318.847-.57 1.702-.757 2.552l-2.347 1.355c-1.096.633-1.988 2.178-1.988 3.443v1.148c0 .632.224 1.078.584 1.285.36.21.857.179 1.404-.138l2.347-1.354c.187.634.439 1.198.757 1.678l-1.658 2.871c-.775 1.344-.775 2.8 0 3.247l.702.406c.388.224.898.154 1.407-.14.509-.294 1.018-.812 1.406-1.484l1.658-2.872c.574.037 1.188-.027 1.832-.183v2.71c0 .632.223 1.078.581 1.286.36.208.858.179 1.407-.14l.993-.573c1.096-.632 1.988-2.177 1.988-3.442v-2.71c.644-.586 1.258-1.233 1.831-1.932l1.66.958c.386.223.896.153 1.404-.14.51-.294 1.019-.812 1.407-1.484l.703-1.217c.775-1.342.775-2.8 0-3.247l-1.659-.958c.318-.847.571-1.702.758-2.551l2.346-1.355c1.097-.632 1.988-2.177 1.988-3.444z" stroke="#33475C" stroke-width="5" stroke-linecap="round" stroke-linejoin="round"/>
        <path d="M106.247 94.257l.994-.575c.547-.316 1.045-.345 1.405-.138l5.686 3.283c-.36-.207-.856-.178-1.405.14l-.994.572c-1.096.633-1.987 2.178-1.987 3.443v2.711l-5.687-3.284V97.7c0-1.266.892-2.81 1.988-3.443zM104.259 100.41l5.686 3.283c-.642.585-1.258 1.232-1.832 1.931l-5.686-3.283c.575-.699 1.19-1.345 1.832-1.932z" stroke="#33475C" stroke-width="5" stroke-linecap="round" stroke-linejoin="round"/>
        <path d="M97.254 104.224l.704-1.217c.774-1.343 2.037-2.072 2.81-1.624l5.557 3.208-.008.026c-.782-.302-1.941.406-2.674 1.672l-.702 1.218c-.775 1.343-.775 2.8 0 3.246l-5.687-3.282c-.776-.447-.776-1.904 0-3.247zM97.254 121.268l1.658-2.87v-.002l.621.359c-.011.103-.026.206-.026.306v1.147c0 .633.223 1.08.584 1.286.36.21.857.179 1.404-.138l1.273-.734 1.83 1.058-1.657 2.871c-.775 1.344-.775 2.8 0 3.247l-4.983-2.878-.704-.405c-.776-.447-.776-1.905 0-3.247z" stroke="#33475C" stroke-width="5" stroke-linecap="round" stroke-linejoin="round"/>
        <path d="M93.82 116.925v-1.148c0-1.265.893-2.81 1.989-3.443l2.347-1.354 5.686 3.283-2.347 1.355c-1.096.632-1.988 2.177-1.988 3.444v1.146c0 .634.224 1.078.584 1.286l-5.687-3.282c-.36-.208-.583-.652-.583-1.287z" stroke="#33475C" stroke-width="5" stroke-linecap="round" stroke-linejoin="round"/>
        <path d="M98.156 110.98c.186-.85.438-1.705.756-2.553l2.244 1.297 1.785 1.03 1.658.957c-.318.848-.57 1.702-.757 2.551l-3.056-1.763-2.63-1.519zM104.599 121.68l-1.831-1.059 1.074-.618c.187.633.439 1.196.757 1.677zM123.365 102.992l-2.346 1.354c-.187-.634-.44-1.197-.758-1.678l1.047-1.814 3.462 2c-.36-.209-.858-.18-1.405.138zM57.066 155.742l11.084 6.399c2.693 1.555 7.1 1.555 9.793 0l16.721-9.654 21.618-12.481 21.62-12.481 16.72-9.654c1.347-.778 2.02-1.803 2.02-2.827 0-1.026-.673-2.05-2.02-2.828l-11.141-6.433-.197.05-86.19 49.762-.028.147z" stroke="#33475C" stroke-width="5" stroke-linecap="round" stroke-linejoin="round"/>
        <path d="M122.576 129.83l-10.485-6.054-24.405 14.09 10.485 6.054c1.156.667 3.047.667 4.204 0l20.2-11.663c1.157-.668 1.157-1.759 0-2.427z" stroke="#33475C" stroke-width="5" stroke-linecap="round" stroke-linejoin="round"/>
        <path d="M154.594 117.82l-16.721 9.655-21.618 12.48-21.62 12.482-16.72 9.655c-2.694 1.555-7.1 1.555-9.794 0l-16.72-9.655-21.62-12.481-21.617-12.48s0 4.524 3.678 6.646h-.001l17.94 10.358 21.62 12.48 16.72 9.656c2.694 1.555 7.1 1.555 9.793 0l16.721-9.655 21.62-12.481 21.618-12.481 16.72-9.654c1.347-.777 2.02-1.803 2.02-2.828v-4.523c0 1.024-.673 2.05-2.02 2.827zM64.89 42.087c1.326.467 2.761 1.361 2.727 2.654-.028 1.081-1.095 1.89-2.144 2.398-1.05.51-2.238.922-2.917 1.81-.8 1.051-.64 2.524.051 3.636.19.305.427.575.679.835L89.65 38.2V16.142c0-1.868-1.324-2.632-2.94-1.697L66.075 26.358c.379.401.678.852.855 1.366.576 1.681-.371 3.491-1.597 4.856-1.225 1.365-2.765 2.518-3.704 4.061-.646 1.057-.961 2.41-.297 3.46.707 1.122 2.231 1.518 3.558 1.986M13.15 60.306v54.725c0 .101.019.181.026.274l20.756-44.818c.05-.107.13-.195.23-.253l1.365-.787c-1.037-2.56-.7-5.846 1.533-7.436 1.514-1.075 3.93-1.659 3.976-3.515.056-2.334-3.687-2.681-4.746-4.762-.819-1.605.292-3.5 1.455-4.878 1.161-1.379 2.517-2.96 2.2-4.735-.141-.793-.617-1.456-1.255-1.952L16.089 55.218c-1.616.933-2.938 3.224-2.938 5.088" stroke="#33475C" stroke-width="5" stroke-linecap="round" stroke-linejoin="round"/>
        <path d="M64.89 42.087c-1.327-.468-2.851-.864-3.558-1.986-.664-1.05-.349-2.403.297-3.46.939-1.543 2.48-2.696 3.704-4.061 1.226-1.365 2.173-3.175 1.597-4.856-.177-.514-.476-.965-.855-1.366L38.69 42.168c.636.498 1.114 1.162 1.255 1.953.317 1.774-1.039 3.358-2.2 4.735-1.163 1.378-2.274 3.271-1.455 4.879 1.059 2.08 4.802 2.427 4.746 4.762-.046 1.855-2.465 2.437-3.975 3.514-2.234 1.59-2.572 4.876-1.534 7.436L63.286 53.42c-.252-.26-.489-.53-.679-.835-.692-1.112-.851-2.585-.05-3.636.678-.888 1.866-1.3 2.916-1.81 1.049-.508 2.116-1.317 2.144-2.398.034-1.292-1.4-2.187-2.727-2.654" stroke="#33475C" stroke-width="5" stroke-linecap="round" stroke-linejoin="round"/>
        <path d="M29.781 139.956L51.4 152.437l16.72 9.654c2.695 1.555 7.102 1.555 9.795 0l16.72-9.654 21.62-12.48 21.617-12.482 16.721-9.654c1.347-.778 2.02-1.802 2.02-2.827 0-1.026-.673-2.05-2.02-2.827l-16.72-9.654L94.636 77.55 51.4 102.514l-21.617 12.48v.001l-21.619 12.48 21.617 12.481" fill="#E4EAEF"/>
        <path d="M29.781 139.956L51.4 152.437l16.72 9.654c2.695 1.555 7.102 1.555 9.795 0l16.72-9.654 21.62-12.48 21.617-12.482 16.721-9.654c1.347-.778 2.02-1.802 2.02-2.827 0-1.026-.673-2.05-2.02-2.827l-16.72-9.654L94.636 77.55 51.4 102.514l-21.617 12.48v.001l-21.619 12.48 21.617 12.481" stroke="#33475C" stroke-linecap="round" stroke-linejoin="round"/>
        <path fill="#CBD6E3" d="M143.256 105.784l-86.19 49.761-48.902-28.07L94.637 77.55z"/>
        <path stroke="#33475C" stroke-linecap="round" stroke-linejoin="round" d="M143.256 105.784l-86.19 49.761-48.902-28.07L94.637 77.55z"/>
        <path d="M73.018 90.032l-21.617 12.481-21.618 12.48v.001l-21.62 12.48V58.243c0-3.11 2.205-6.926 4.898-8.482l16.722-9.655L51.4 27.625l21.618-12.48L89.74 5.49c1.286-.742 2.46-.84 3.336-.403.96.48 1.562 1.604 1.562 3.23V77.55L73.018 90.032" fill="#32475C"/>
        <path d="M73.018 90.032l-21.617 12.481-21.618 12.48v.001l-21.62 12.48V58.243c0-3.11 2.205-6.926 4.898-8.482l16.722-9.655L51.4 27.625l21.618-12.48L89.74 5.49c1.286-.742 2.46-.84 3.336-.403.96.48 1.562 1.604 1.562 3.23V77.55L73.018 90.032" stroke="#33475C" stroke-linecap="round" stroke-linejoin="round"/>
        <path d="M86.711 14.444c1.616-.933 2.938-.169 2.938 1.696v54.726c0 1.865-1.322 4.155-2.938 5.09l-70.62 40.771c-1.617.934-2.94.17-2.94-1.696V60.307c0-1.867 1.323-4.157 2.94-5.089l70.62-40.774z" fill="#506E91"/>
        <path fill="#CBD6E3" d="M34.447 70.724l86.19-49.762-26 56.588-86.473 49.925z"/>
        <path stroke="#33475C" stroke-linecap="round" stroke-linejoin="round" d="M34.447 70.724l86.19-49.762-26 56.588-86.473 49.925z"/>
        <path fill="#32475C" d="M94.637 77.55v56.303l48.618-28.07z"/>
        <path stroke="#33475C" stroke-linecap="round" stroke-linejoin="round" d="M94.637 77.55v56.303l48.618-28.07z"/>
        <path d="M93.075 5.088l-4.524-2.262c-.875-.438-2.049-.34-3.335.402l-16.721 9.656-21.62 12.48L25.26 37.846 8.538 47.499C5.844 49.054 3.64 52.87 3.64 55.98v64.773c.04 1.07.496 4.41 4.522 6.721l.001.001V58.243c0-3.11 2.203-6.927 4.897-8.482l16.721-9.653L51.4 27.626l21.619-12.48 16.72-9.657c1.287-.74 2.46-.839 3.336-.401" fill="#E4EAEF"/>
        <path d="M93.075 5.088l-4.524-2.262c-.875-.438-2.049-.34-3.335.402l-16.721 9.656-21.62 12.48L25.26 37.846 8.538 47.499C5.844 49.054 3.64 52.87 3.64 55.98v64.773c.04 1.07.496 4.41 4.522 6.721l.001.001V58.243c0-3.11 2.203-6.927 4.897-8.482l16.721-9.653L51.4 27.626l21.619-12.48 16.72-9.657c1.287-.74 2.46-.839 3.336-.401z" stroke="#33475C" stroke-linecap="round" stroke-linejoin="round"/>
        <path fill="#415A77" d="M8.164 127.475l48.901 28.07 37.572-21.692V77.55z"/>
        <path stroke="#33475C" stroke-linecap="round" stroke-linejoin="round" d="M8.164 127.475l48.901 28.07 37.572-21.692V77.55z"/>
        <path fill="#415A77" d="M94.637 77.55v.002-.001L8.164 127.477l48.9 28.069 86.191-49.762z"/>
        <path stroke="#33475C" stroke-linecap="round" stroke-linejoin="round" d="M94.637 77.55v.002-.001L8.164 127.477l48.9 28.069 86.191-49.762z"/>
        <path d="M29.46 124.211l-6.677 3.856c-.377.218-1.042.19-1.478-.063-.436-.25-.483-.634-.106-.851l6.679-3.857c.377-.217 1.04-.19 1.476.063.435.25.484.635.106.852" fill="#FFF"/>
        <path d="M34.983 134.379l-.528.305c-.435.251-1.147.251-1.583 0-.435-.252-.435-.663 0-.915l.528-.305c.435-.25 1.148-.25 1.583 0 .436.252.436.663 0 .915" fill="#75715C"/>
        <path d="M54.97 136.197l-1.532.883c-.376.218-1.041.19-1.478-.06-.435-.252-.483-.636-.106-.854l1.532-.884c.378-.217 1.042-.19 1.477.06.436.253.483.636.106.855" fill="#6BD1E5"/>
        <path d="M60.512 132.996l-3.247 1.875c-.378.218-1.043.19-1.479-.06-.434-.252-.481-.636-.105-.854l3.247-1.875c.377-.217 1.042-.19 1.477.061.436.253.483.636.107.853" fill="#FFF"/>
        <path d="M62.886 131.625l-.344.2c-.377.217-1.042.19-1.477-.063-.435-.25-.483-.634-.106-.853l.345-.199c.377-.217 1.04-.19 1.476.063.435.25.484.635.106.852" fill="#F63174"/>
        <path d="M67.241 129.112l-2.324 1.341c-.377.217-1.042.19-1.477-.061-.436-.252-.483-.636-.106-.854l2.324-1.341c.377-.217 1.041-.19 1.477.06.435.253.483.638.106.855M68.622 128.01c.145.083.145.219 0 .305-.146.084-.382.084-.527 0-.146-.086-.146-.222 0-.306.145-.084.38-.084.527 0M77.797 123.016l-7.865 4.542c-.377.217-1.042.19-1.479-.061-.434-.252-.481-.637-.105-.854l7.866-4.54c.377-.218 1.042-.19 1.477.06.435.253.483.636.106.853" fill="#FFF"/>
        <path d="M80.567 121.417l-.344.2c-.377.216-1.041.19-1.477-.063-.435-.251-.483-.635-.106-.853l.345-.199c.377-.217 1.04-.19 1.476.062.436.251.484.636.106.853" fill="#F63174"/>
        <path d="M31.261 127.623l-.263.153c-.435.25-1.148.25-1.583 0-.436-.251-.436-.663 0-.915l.264-.152c.435-.251 1.147-.251 1.582 0 .437.251.437.663 0 .914" fill="#FFF"/>
        <path d="M27.932 129.546l-1.188.685c-.435.251-1.147.251-1.583 0-.436-.251-.436-.661 0-.914l1.188-.686c.435-.25 1.147-.25 1.583 0 .436.252.436.663 0 .915" fill="#75715C"/>
        <path d="M36.513 124.591l-2.455 1.418c-.377.218-1.042.19-1.477-.062-.436-.25-.483-.634-.105-.853l2.455-1.418c.377-.217 1.04-.19 1.476.062.436.252.484.636.106.853" fill="#A2E200"/>
        <path d="M38.806 123.268l-.344.198c-.378.218-1.043.191-1.477-.061-.435-.252-.483-.635-.106-.853l.345-.199c.376-.217 1.04-.19 1.476.061.435.252.484.636.106.854" fill="#FFF"/>
        <path d="M46.938 118.573l-6.018 3.474c-.378.219-1.043.19-1.478-.06-.435-.252-.483-.636-.106-.853l6.019-3.476c.376-.217 1.041-.19 1.477.062.435.251.483.636.106.853" fill="#6BD1E5"/>
        <path d="M48.967 117.401l-.345.2c-.377.216-1.042.19-1.477-.062-.436-.252-.483-.634-.106-.854l.345-.198c.376-.218 1.041-.19 1.477.062.435.252.482.635.106.852" fill="#FFF"/>
        <path d="M51.077 116.183l-.343.199c-.378.217-1.043.19-1.477-.062-.436-.252-.484-.635-.107-.853l.344-.199c.378-.217 1.042-.19 1.477.061.436.252.484.636.106.854M59.34 111.412l-6.148 3.551c-.378.217-1.043.19-1.478-.062-.436-.251-.483-.636-.107-.853l6.15-3.551c.378-.217 1.042-.19 1.478.062.435.251.484.636.106.853" fill="#FC9900"/>
        <path d="M58.825 138.422l-1.531.885c-.377.218-1.042.19-1.478-.062-.436-.25-.483-.635-.107-.852l1.533-.886c.378-.217 1.041-.19 1.477.062.435.251.483.636.106.853" fill="#6BD1E5"/>
        <path d="M64.367 135.223l-3.247 1.874c-.377.219-1.042.19-1.478-.06-.434-.253-.482-.636-.105-.853l3.247-1.876c.377-.218 1.042-.19 1.477.062.435.25.483.635.106.853" fill="#FFF"/>
        <path d="M66.742 133.85l-.344.2c-.378.217-1.043.19-1.477-.061-.435-.252-.483-.635-.106-.853l.345-.199c.376-.217 1.04-.19 1.475.061.436.252.485.636.107.853" fill="#F63174"/>
        <path d="M71.097 131.337l-2.324 1.343c-.377.217-1.042.188-1.477-.063-.436-.25-.483-.635-.107-.852l2.324-1.343c.378-.217 1.042-.19 1.477.062.436.253.483.636.107.853M72.477 130.235c.146.084.146.22 0 .305-.146.084-.38.084-.527 0-.146-.085-.146-.221 0-.305.146-.084.381-.084.527 0M85.215 123.186l-11.427 6.598c-.378.217-1.042.19-1.479-.062-.435-.251-.482-.634-.106-.853l11.43-6.598c.376-.217 1.04-.19 1.475.061.437.253.485.636.107.854" fill="#FFF"/>
        <path d="M88.25 121.434l-.344.199c-.378.217-1.043.19-1.477-.061-.435-.253-.483-.636-.106-.854l.345-.2c.376-.217 1.04-.19 1.475.063.436.25.485.635.107.853" fill="#F63174"/>
        <path d="M82.891 128.98l-1.531.884c-.378.219-1.043.19-1.478-.06-.436-.253-.483-.636-.107-.853l1.533-.886c.376-.217 1.041-.19 1.477.061.435.253.483.637.106.854" fill="#6BD1E5"/>
        <path d="M88.433 125.78l-3.247 1.875c-.378.218-1.043.19-1.478-.06-.434-.252-.483-.637-.105-.854l3.247-1.875c.376-.217 1.041-.19 1.476.06.436.253.484.638.107.855M64.132 139.81l-2.983 1.722c-.377.218-1.042.19-1.477-.06-.436-.252-.483-.636-.107-.853l2.984-1.723c.377-.218 1.041-.19 1.477.062.435.25.483.635.106.853" fill="#FFF"/>
        <path d="M68.223 137.45l-2.324 1.34c-.377.218-1.042.19-1.477-.06-.436-.253-.483-.637-.107-.854l2.325-1.342c.376-.217 1.041-.19 1.477.061.435.253.483.636.106.854" fill="#6BD1E5"/>
        <path d="M78.524 131.5L70 136.425c-.377.217-1.042.19-1.478-.063-.434-.25-.482-.635-.105-.852l8.525-4.922c.377-.217 1.041-.19 1.477.06.435.253.483.636.106.854M42.376 134.563l-4.171 2.408c-.377.217-1.04.19-1.477-.062-.436-.25-.483-.635-.107-.853l4.172-2.408c.377-.217 1.04-.19 1.476.061.437.253.484.637.107.854M48.314 131.135l-3.51 2.027c-.378.217-1.043.19-1.479-.061-.435-.251-.482-.636-.106-.854l3.512-2.027c.376-.217 1.041-.19 1.477.061.435.252.483.637.106.854" fill="#FFF"/>
        <path d="M50.557 129.84l-.345.199c-.376.217-1.041.19-1.477-.063-.435-.25-.483-.634-.106-.852l.345-.2c.376-.217 1.041-.19 1.477.063.435.25.483.635.106.852" fill="#F63174"/>
        <path d="M52.8 128.544l-.345.199c-.376.217-1.041.19-1.477-.061-.435-.252-.483-.635-.106-.853l.345-.199c.377-.217 1.042-.19 1.477.061.435.252.483.636.106.853M43.626 133.537c.144.084.144.22 0 .306-.146.083-.383.083-.528 0-.146-.086-.146-.222 0-.306.145-.085.382-.085.528 0" fill="#FFF"/>
        <path d="M57.03 126.102l-1.532.885c-.377.218-1.042.19-1.477-.06-.435-.253-.484-.636-.106-.854l1.532-.885c.377-.217 1.04-.19 1.476.061.435.253.484.636.106.853" fill="#6BD1E5"/>
        <path d="M63.408 122.421l-4.171 2.408c-.377.217-1.042.19-1.477-.062-.436-.25-.484-.635-.107-.853l4.171-2.408c.377-.217 1.042-.19 1.477.061.436.252.483.636.107.854" fill="#FFF"/>
        <path d="M36.406 129.105l-5.806 3.352c-.436.252-1.147.252-1.584 0-.435-.25-.435-.663 0-.914l5.807-3.352c.434-.25 1.148-.25 1.583 0 .435.251.435.663 0 .914M43.135 125.22l-4.09 2.362c-.436.251-1.148.251-1.584 0-.435-.252-.435-.663 0-.915l4.091-2.361c.435-.251 1.148-.251 1.583 0 .436.25.436.663 0 .914" fill="#75715C"/>
        <path d="M48.634 122.045l-2.983 1.722c-.377.218-1.042.19-1.476-.06-.435-.252-.484-.637-.106-.854l2.983-1.723c.377-.217 1.04-.19 1.476.062.437.252.484.635.106.853" fill="#FFF"/>
        <path d="M52.725 119.683l-2.323 1.342c-.377.218-1.042.19-1.477-.062-.435-.25-.484-.635-.106-.852l2.323-1.342c.378-.218 1.041-.19 1.477.061.435.253.484.636.106.853" fill="#6BD1E5"/>
        <path d="M63.026 113.736l-8.524 4.923c-.377.217-1.042.19-1.478-.063-.435-.25-.483-.635-.106-.852l8.526-4.923c.377-.217 1.04-.19 1.476.062.437.25.484.635.106.853" fill="#FFF"/>
        <path d="M48.21 135.647l-2.455 1.417c-.377.217-1.042.19-1.477-.061-.435-.251-.483-.636-.105-.854l2.455-1.417c.377-.217 1.04-.19 1.476.06.437.253.484.636.106.855" fill="#A2E200"/>
        <path d="M50.503 134.322l-.344.2c-.377.217-1.042.19-1.477-.063-.435-.25-.483-.634-.106-.852l.345-.2c.377-.217 1.04-.19 1.476.063.435.25.484.635.106.852" fill="#FFF"/>
        <path d="M58.635 129.627l-6.018 3.475c-.377.218-1.041.19-1.478-.06-.435-.252-.483-.636-.106-.854l6.019-3.474c.378-.219 1.041-.192 1.477.06.435.253.483.636.106.853" fill="#6BD1E5"/>
        <path d="M60.664 128.457l-.345.199c-.376.217-1.041.19-1.477-.062-.435-.251-.483-.635-.106-.853l.345-.2c.376-.216 1.041-.19 1.477.062.435.252.483.637.106.854" fill="#FFF"/>
        <path d="M62.775 127.237l-.344.2c-.378.217-1.043.19-1.477-.062-.436-.252-.483-.635-.107-.853l.345-.2c.377-.217 1.04-.19 1.476.063.436.25.484.635.107.852M71.038 122.466l-6.149 3.551c-.378.218-1.043.19-1.478-.06-.436-.253-.483-.636-.106-.853l6.15-3.552c.377-.217 1.041-.19 1.477.061.435.253.484.636.106.853" fill="#FC9900"/>
        <path d="M73.2 121.22l-.345.198c-.377.218-1.042.19-1.477-.062-.436-.25-.483-.634-.107-.853l.345-.199c.377-.217 1.042-.19 1.476.063.437.25.484.635.108.852M75.443 119.924l-.345.199c-.377.217-1.042.19-1.477-.061-.436-.252-.483-.635-.107-.854l.345-.198c.377-.218 1.042-.191 1.477.061.436.252.483.636.107.853" fill="#FFF"/>
        <path d="M78.488 118.166l-.264.152c-.437.251-1.149.251-1.584 0-.436-.25-.436-.663 0-.914l.264-.152c.434-.251 1.147-.251 1.584 0 .435.25.435.662 0 .914M69.307 141.275l-4.303 2.484c-.377.218-1.042.19-1.477-.062-.435-.25-.483-.635-.106-.852l4.303-2.485c.378-.217 1.042-.19 1.477.061.435.252.483.636.106.854" fill="#F63174"/>
        <path d="M74.85 138.075l-3.247 1.874c-.378.219-1.043.19-1.479-.06-.434-.252-.481-.636-.105-.853l3.247-1.876c.377-.217 1.042-.19 1.477.062.436.252.483.635.106.853M83.873 132.865l-6.677 3.855c-.378.218-1.043.19-1.478-.061-.436-.251-.483-.635-.107-.852l6.679-3.856c.377-.217 1.041-.19 1.477.06.435.253.483.636.106.854" fill="#FFF"/>
        <path fill="#32475C" d="M34.447 70.724l86.19-49.762-26 56.588-86.473 49.925z"/>
        <path d="M34.884 71.124L9.427 126.093l84.77-48.942 25.184-54.812-84.497 48.785zM8.164 128.04c-.138 0-.275-.05-.381-.148-.182-.166-.235-.432-.132-.655l26.282-56.75c.05-.106.13-.194.23-.252l86.19-49.762c.215-.124.482-.096.664.071.182.167.236.43.133.654l-26 56.59c-.048.105-.129.193-.23.252L8.446 127.964c-.088.051-.186.076-.283.076z" fill="#CBD6E3"/>
        <path d="M51.721 67.046l-10.52 6.025c-.594.34-.889.208-.654-.296.235-.503.913-1.191 1.506-1.532l10.521-6.024c.593-.34.888-.208.654.296-.236.502-.913 1.19-1.507 1.531" fill="#FFF"/>
        <path d="M35.972 85.856l-.831.476c-.687.393-1.057.302-.822-.2.235-.503.987-1.236 1.674-1.629l.83-.476c.687-.393 1.057-.303.822.2-.236.503-.988 1.235-1.673 1.629" fill="#75715C"/>
        <path d="M43.006 91.617l-2.413 1.382c-.593.34-.888.207-.654-.296.235-.503.913-1.192 1.506-1.533l2.414-1.382c.594-.34.888-.207.654.296-.235.503-.913 1.192-1.507 1.533" fill="#6BD1E5"/>
        <path d="M51.737 86.617l-5.114 2.93c-.595.34-.89.206-.655-.296.234-.503.912-1.193 1.506-1.532l5.116-2.93c.593-.34.887-.208.653.296-.234.503-.912 1.192-1.506 1.532" fill="#FFF"/>
        <path d="M55.479 84.474l-.542.31c-.595.34-.889.208-.655-.295.234-.503.913-1.192 1.507-1.532l.542-.31c.594-.342.888-.208.654.295-.234.502-.913 1.192-1.506 1.532" fill="#F63174"/>
        <path d="M46.409 73.352l-.415.238c-.688.394-1.056.303-.822-.2.234-.502.987-1.236 1.674-1.627l.416-.24c.685-.393 1.055-.302.82.201-.234.502-.988 1.235-1.673 1.628" fill="#FFF"/>
        <path d="M41.163 76.356l-1.87 1.072c-.687.392-1.056.303-.822-.2.234-.504.987-1.235 1.674-1.629l1.87-1.071c.686-.394 1.056-.303.82.2-.234.502-.987 1.235-1.672 1.628" fill="#75715C"/>
        <path d="M54.682 68.615l-3.869 2.214c-.592.34-.887.208-.653-.295.235-.503.913-1.192 1.506-1.533l3.87-2.215c.593-.34.887-.207.653.296-.235.502-.913 1.192-1.507 1.533" fill="#A2E200"/>
        <path d="M58.294 66.546l-.542.31c-.595.34-.889.208-.655-.295.234-.504.913-1.192 1.507-1.533l.543-.31c.593-.34.887-.208.653.296-.234.503-.912 1.192-1.506 1.532" fill="#FFF"/>
        <path d="M71.104 59.21l-9.48 5.43c-.594.34-.89.206-.654-.296.234-.503.913-1.194 1.506-1.533l9.481-5.428c.594-.342.888-.208.654.295-.235.502-.913 1.192-1.507 1.532" fill="#6BD1E5"/>
        <path d="M74.3 57.38l-.542.31c-.594.34-.89.207-.654-.295.234-.503.913-1.193 1.507-1.534l.541-.31c.594-.34.89-.207.654.297-.234.502-.913 1.192-1.507 1.532" fill="#FFF"/>
        <path d="M77.626 55.475l-.542.31c-.595.34-.889.208-.654-.294.234-.505.912-1.193 1.506-1.534l.543-.31c.594-.34.888-.208.654.297-.235.502-.913 1.19-1.507 1.53M90.644 48.02l-9.687 5.548c-.595.34-.89.208-.655-.295.234-.503.912-1.192 1.507-1.533l9.688-5.548c.594-.34.888-.208.654.297-.234.502-.913 1.19-1.507 1.53" fill="#FC9900"/>
        <path d="M94.048 46.072l-.542.31c-.595.34-.889.207-.654-.296.234-.503.912-1.193 1.506-1.533l.543-.31c.594-.34.888-.208.654.296-.235.502-.913 1.191-1.507 1.533M97.582 44.047l-.541.31c-.595.34-.89.208-.655-.294.234-.504.912-1.193 1.506-1.534l.542-.31c.594-.34.889-.207.654.296s-.913 1.192-1.506 1.532" fill="#FFF"/>
        <path d="M40.93 96.069l-2.412 1.382c-.594.34-.89.207-.654-.296.234-.503.913-1.192 1.506-1.533l2.413-1.38c.593-.341.889-.209.653.294-.234.503-.912 1.192-1.506 1.533" fill="#6BD1E5"/>
        <path d="M49.66 91.07l-5.114 2.928c-.595.34-.889.207-.655-.295.235-.503.913-1.193 1.507-1.532l5.115-2.93c.594-.34.89-.208.654.296-.234.503-.913 1.192-1.507 1.532" fill="#FFF"/>
        <path d="M53.402 88.926l-.541.31c-.594.34-.89.208-.655-.295s.914-1.192 1.506-1.532l.543-.31c.594-.34.889-.208.654.295-.234.503-.913 1.192-1.507 1.532" fill="#F63174"/>
        <path d="M60.262 84.998l-3.66 2.097c-.595.339-.888.207-.653-.297.235-.503.911-1.192 1.506-1.532l3.66-2.096c.593-.34.889-.208.653.295-.234.504-.912 1.192-1.506 1.533M41.14 99.211l-4.698 2.692c-.595.34-.888.207-.654-.296.234-.503.912-1.193 1.506-1.532l4.7-2.692c.593-.34.887-.208.653.297-.234.502-.912 1.19-1.506 1.531" fill="#FFF"/>
        <path d="M47.585 95.521l-3.66 2.097c-.594.34-.889.207-.653-.296.234-.504.911-1.192 1.506-1.533l3.66-2.096c.594-.34.888-.208.654.296-.236.503-.913 1.192-1.507 1.532" fill="#6BD1E5"/>
        <path d="M39.468 87.117l-6.571 3.762c-.594.34-.89.208-.654-.295.234-.504.913-1.192 1.506-1.533l6.571-3.762c.594-.34.888-.207.654.296-.235.502-.913 1.192-1.506 1.532M48.821 81.76l-5.531 3.167c-.594.34-.888.207-.654-.295.235-.503.913-1.193 1.506-1.532l5.532-3.168c.594-.34.889-.208.653.296-.234.502-.912 1.191-1.506 1.532" fill="#FFF"/>
        <path d="M52.355 79.736l-.541.31c-.595.34-.89.208-.655-.294.234-.504.912-1.193 1.506-1.533l.543-.31c.594-.34.888-.208.654.295-.234.503-.913 1.192-1.507 1.532" fill="#F63174"/>
        <path d="M55.89 77.713l-.542.31c-.595.34-.89.208-.655-.295.234-.504.913-1.192 1.506-1.534l.543-.31c.593-.34.888-.207.654.297-.235.502-.913 1.192-1.506 1.532M41.993 85.447c-.078.168-.328.411-.557.542-.23.132-.353.102-.274-.065.078-.17.328-.412.558-.544.23-.132.351-.101.273.067" fill="#FFF"/>
        <path d="M46.363 76.642l-9.148 5.238c-.685.393-1.055.302-.82-.2.235-.503.988-1.236 1.673-1.628l9.147-5.238c.686-.393 1.056-.303.82.2-.234.502-.987 1.234-1.672 1.628M56.964 70.57l-6.444 3.692c-.687.391-1.055.302-.821-.2.234-.503.987-1.236 1.674-1.63l6.444-3.69c.685-.393 1.055-.302.82.201-.234.502-.987 1.235-1.673 1.628" fill="#75715C"/>
        <path d="M65.627 65.61L60.928 68.3c-.595.34-.888.207-.653-.296.235-.502.911-1.193 1.506-1.533l4.7-2.69c.593-.34.888-.208.653.295-.234.502-.913 1.192-1.507 1.532" fill="#FFF"/>
        <path d="M72.072 61.92l-3.66 2.096c-.595.34-.888.206-.654-.296.235-.503.912-1.193 1.507-1.534l3.66-2.095c.593-.34.887-.207.653.296-.234.502-.912 1.192-1.506 1.532" fill="#6BD1E5"/>
        <path d="M101.504 45.065L93.48 49.66c-.594.34-.889.208-.654-.294.234-.505.913-1.194 1.506-1.534l8.026-4.595c.594-.34.888-.208.654.295-.234.503-.913 1.192-1.507 1.533M40.509 89.784l-3.868 2.215c-.594.34-.888.207-.654-.296.235-.502.913-1.192 1.507-1.533l3.868-2.214c.594-.34.888-.208.653.295-.234.502-.912 1.192-1.506 1.533" fill="#A2E200"/>
        <path d="M44.12 87.715l-.541.31c-.594.34-.89.208-.654-.294.234-.505.913-1.193 1.507-1.534l.541-.31c.594-.34.89-.208.654.297-.234.502-.913 1.19-1.507 1.53" fill="#FFF"/>
        <path d="M56.931 80.38l-9.48 5.429c-.595.34-.889.207-.654-.297.234-.502.912-1.192 1.506-1.532l9.48-5.429c.594-.34.889-.208.654.296-.234.503-.912 1.192-1.506 1.532" fill="#6BD1E5"/>
        <path d="M41.143 102.474l-6.778 3.881c-.595.34-.888.207-.654-.295.235-.503.912-1.193 1.507-1.534l6.778-3.881c.593-.34.889-.207.653.296-.234.502-.912 1.192-1.506 1.533" fill="#F63174"/>
        <path d="M49.874 97.474l-5.115 2.929c-.594.34-.888.207-.654-.296.234-.503.912-1.192 1.506-1.532l5.115-2.93c.594-.34.89-.207.654.296-.234.502-.913 1.192-1.506 1.533" fill="#FFF"/>
        <path d="M81.307 96.099c6.403-3.697 11.651-12.787 11.651-20.18 0-1.858-.333-3.44-.932-4.71 4.184-.368 7.141 2.722 7.141 8.273 0 7.393-5.249 16.482-11.65 20.178-4.793 2.768-8.938 1.764-10.719-2.015 1.389-.122 2.913-.626 4.51-1.546" fill="#CBD6E3"/>
        <path d="M81.307 96.099c6.403-3.697 11.651-12.787 11.651-20.18 0-1.858-.333-3.44-.932-4.71 4.184-.368 7.141 2.722 7.141 8.273 0 7.393-5.249 16.482-11.65 20.178-4.793 2.768-8.938 1.764-10.719-2.015 1.389-.122 2.913-.626 4.51-1.546z" stroke="#33475C" stroke-linecap="round" stroke-linejoin="round"/>
        <path d="M81.243 89.83c0 2.022.697 3.433 1.832 4.085 1.131.65 2.697.544 4.442-.464 3.497-2.019 6.273-6.829 6.273-10.865 0-2.022-.697-3.435-1.832-4.087-1.131-.648-2.696-.542-4.441.466-3.497 2.017-6.274 6.827-6.274 10.865" fill="#98ACC3"/>
        <path d="M81.243 89.83c0 2.022.697 3.433 1.832 4.085 1.131.65 2.697.544 4.442-.464 3.497-2.019 6.273-6.829 6.273-10.865 0-2.022-.697-3.435-1.832-4.087-1.131-.648-2.696-.542-4.441.466-3.497 2.017-6.274 6.827-6.274 10.865z" stroke="#33475C" stroke-linecap="round" stroke-linejoin="round"/>
        <path d="M81.307 75.403c1.745-1.008 3.31-1.113 4.441-.465l6.21 3.561c-1.132-.648-2.697-.542-4.442.465-3.497 2.019-6.273 6.829-6.273 10.866 0 2.022.698 3.434 1.832 4.085l-6.209-3.561c-1.136-.65-1.832-2.063-1.832-4.086 0-4.038 2.777-8.847 6.273-10.865" fill="#CBD6E3"/>
        <path d="M81.307 75.403c1.745-1.008 3.31-1.113 4.441-.465l6.21 3.561c-1.132-.648-2.697-.542-4.442.465-3.497 2.019-6.273 6.829-6.273 10.866 0 2.022.698 3.434 1.832 4.085l-6.209-3.561c-1.136-.65-1.832-2.063-1.832-4.086 0-4.038 2.777-8.847 6.273-10.865z" stroke="#33475C" stroke-linecap="round" stroke-linejoin="round"/>
        <path fill="#CBD6E3" d="M101.688 56.36l-6.21-3.562-5.125 6.258 6.862 3.96 4.473-2.465z"/>
        <path stroke="#33475C" stroke-linecap="round" stroke-linejoin="round" d="M101.688 56.36l-6.21-3.562-5.125 6.258 6.862 3.96 4.473-2.465z"/>
        <path fill="#7B97B7" d="M98.95 66.832l5.658-1.39 6.209 3.561-4.638 3.684h-3.714z"/>
        <path stroke="#33475C" stroke-linecap="round" stroke-linejoin="round" d="M98.95 66.832l5.658-1.39 6.209 3.561-4.638 3.684h-3.714z"/>
        <path fill="#CBD6E3" d="M84.556 53.865l6.208 3.561-6.496 3.753-6.209-3.563z"/>
        <path stroke="#33475C" stroke-linecap="round" stroke-linejoin="round" d="M84.556 53.865l6.208 3.561-6.496 3.753-6.209-3.563z"/>
        <path fill="#7B97B7" d="M78.059 57.617l-1.625 7.47 6.21 3.56 1.624-7.47z"/>
        <path stroke="#33475C" stroke-linecap="round" stroke-linejoin="round" d="M78.059 57.617l-1.625 7.47 6.21 3.56 1.624-7.47z"/>
        <path fill="#CBD6E3" d="M78.471 73.062l-6.209-3.561-5.124-.34 6.208 3.562z"/>
        <path stroke="#33475C" stroke-linecap="round" stroke-linejoin="round" d="M78.471 73.062l-6.209-3.561-5.124-.34 6.208 3.562z"/>
        <path d="M76.434 65.087l6.21 3.56c-1.472 1.318-2.876 2.813-4.173 4.415L72.262 69.5c1.298-1.601 2.701-3.095 4.172-4.413" fill="#CBD6E3"/>
        <path d="M76.434 65.087l6.21 3.56c-1.472 1.318-2.876 2.813-4.173 4.415L72.262 69.5c1.298-1.601 2.701-3.095 4.172-4.413z" stroke="#33475C" stroke-linecap="round" stroke-linejoin="round"/>
        <path fill="#CBD6E3" d="M67.137 69.161l6.208 3.562-4.592 7.956-6.21-3.563z"/>
        <path stroke="#33475C" stroke-linecap="round" stroke-linejoin="round" d="M67.137 69.161l6.208 3.562-4.592 7.956-6.21-3.563z"/>
        <path fill="#7B97B7" d="M62.544 77.117l2.855 4.268 6.21 3.562-2.856-4.269z"/>
        <path stroke="#33475C" stroke-linecap="round" stroke-linejoin="round" d="M62.544 77.117l2.855 4.268 6.21 3.562-2.856-4.269z"/>
        <path fill="#CBD6E3" d="M63.664 87.206l6.209 3.561-5.657 5.141-6.21-3.56z"/>
        <path stroke="#33475C" stroke-linecap="round" stroke-linejoin="round" d="M63.664 87.206l6.209 3.561-5.657 5.141-6.21-3.56z"/>
        <path fill="#7B97B7" d="M58.007 92.348l6.209 3.56v7.503l-6.21-3.561z"/>
        <path stroke="#33475C" stroke-linecap="round" stroke-linejoin="round" d="M58.007 92.348l6.209 3.56v7.503l-6.21-3.561z"/>
        <path d="M71.61 84.947c-.738 1.925-1.332 3.888-1.737 5.82l-6.209-3.561c.405-1.933.998-3.895 1.736-5.82l6.21 3.561z" fill="#7B97B7"/>
        <path d="M71.61 84.947c-.738 1.925-1.332 3.888-1.737 5.82l-6.209-3.561c.405-1.933.998-3.895 1.736-5.82l6.21 3.561z" stroke="#33475C" stroke-linecap="round" stroke-linejoin="round"/>
        <path d="M69.873 102.02c.405 1.466.998 2.744 1.736 3.817l-5.177-2.97 3.44-.846z" fill="#7B97B7"/>
        <path d="M69.873 102.02c.405 1.466.998 2.744 1.736 3.817l-5.177-2.97 3.44-.846z" stroke="#33475C" stroke-linecap="round" stroke-linejoin="round"/>
        <path d="M75.866 92.933c0-7.392 5.248-16.481 11.65-20.178 6.403-3.696 11.652-.667 11.652 6.726 0 7.394-5.249 16.483-11.651 20.18-6.403 3.696-11.651.665-11.651-6.728zm-5.993 9.088c.406 1.465.998 2.743 1.736 3.815l-2.856 7.569 4.592 2.65 5.126-6.257c1.298.104 2.701-.023 4.172-.404l1.626 5.594 6.496-3.75 1.624-7.471c1.471-1.318 2.875-2.812 4.173-4.413l5.126.339 4.592-7.956-2.856-4.268c.74-1.925 1.33-3.889 1.736-5.821l5.657-5.142v-7.502l-5.657 1.39c-.405-1.465-.997-2.742-1.736-3.816l2.856-7.566-4.592-2.653-5.126 6.258c-1.298-.103-2.702.023-4.173.405l-1.624-5.596-6.496 3.752-1.626 7.47c-1.47 1.317-2.874 2.812-4.172 4.414l-5.126-.339-4.592 7.955 2.856 4.269c-.738 1.926-1.33 3.888-1.736 5.82l-5.657 5.142v7.503l5.657-1.391z" fill="#98ACC3"/>
        <path d="M75.866 92.933c0-7.392 5.248-16.481 11.65-20.178 6.403-3.696 11.652-.667 11.652 6.726 0 7.394-5.249 16.483-11.651 20.18-6.403 3.696-11.651.665-11.651-6.728zm-5.993 9.088c.406 1.465.998 2.743 1.736 3.815l-2.856 7.569 4.592 2.65 5.126-6.257c1.298.104 2.701-.023 4.172-.404l1.626 5.594 6.496-3.75 1.624-7.471c1.471-1.318 2.875-2.812 4.173-4.413l5.126.339 4.592-7.956-2.856-4.268c.74-1.925 1.33-3.889 1.736-5.821l5.657-5.142v-7.502l-5.657 1.39c-.405-1.465-.997-2.742-1.736-3.816l2.856-7.566-4.592-2.653-5.126 6.258c-1.298-.103-2.702.023-4.173.405l-1.624-5.596-6.496 3.752-1.626 7.47c-1.47 1.317-2.874 2.812-4.172 4.414l-5.126-.339-4.592 7.955 2.856 4.269c-.738 1.926-1.33 3.888-1.736 5.82l-5.657 5.142v7.503l5.657-1.391z" stroke="#33475C" stroke-linecap="round" stroke-linejoin="round"/>
        <path fill="#7B97B7" d="M65.049 103.207l1.383-.34 5.177 2.97-2.856 7.568-6.21-3.563z"/>
        <path stroke="#33475C" stroke-linecap="round" stroke-linejoin="round" d="M65.049 103.207l1.383-.34 5.177 2.97-2.856 7.568-6.21-3.563z"/>
        <path d="M77.817 110.596l.654-.798c1.298.104 2.702-.023 4.173-.403l1.624 5.593-6.836-3.92.385-.472z" fill="#7B97B7"/>
        <path d="M77.817 110.596l.654-.798c1.298.104 2.702-.023 4.173-.403l1.624 5.593-6.836-3.92.385-.472z" stroke="#33475C" stroke-linecap="round" stroke-linejoin="round"/>
        <path d="M96.52 62.615c-1.286-.097-2.674.028-4.13.406l-.974-3.35 5.105 2.944z" fill="#CBD6E3"/>
        <path d="M96.52 62.615c-1.286-.097-2.674.028-4.13.406l-.974-3.35 5.105 2.944z" stroke="#33475C" stroke-linecap="round" stroke-linejoin="round"/>
        <path d="M35.599 71.905l21.466 83.64" fill="#CBD6E3"/>
        <path d="M57.065 157.242c-.757 0-1.446-.51-1.642-1.275l-21.468-83.64c-.233-.909.314-1.833 1.221-2.066.91-.238 1.834.316 2.066 1.222l21.467 83.64c.233.909-.313 1.833-1.221 2.066-.142.036-.284.053-.423.053" fill="#FBE1B2"/>
        <path d="M106.744 115.778c.167-.097.332-.206.496-.316.34-.23.672-.49.994-.771.198-.173.393-.354.582-.545.14-.142.278-.285.412-.434.186-.207.367-.419.541-.64.29-.366.568-.748.823-1.147.255-.394.489-.801.704-1.217.217-.422.41-.853.581-1.288.104-.262.198-.523.283-.786.063-.192.119-.384.17-.575.07-.26.132-.52.183-.777.082-.42.142-.837.17-1.246.014-.197.024-.395.024-.588 0-.104-.007-.2-.012-.298.077-.04.155-.083.233-.12.34-.165.672-.288.994-.379.197-.055.391-.097.58-.124.14-.021.278-.035.414-.042.185-.009.365-.003.54.014.29.031.566.094.824.197.252.1.487.236.702.406.217.17.41.378.582.615.102.141.197.295.282.46.062.12.119.247.171.379.07.178.131.366.182.567.083.323.143.67.17 1.047.014.183.026.367.026.56 0 .194-.012.391-.026.589-.027.41-.087.827-.17 1.246-.05.258-.112.517-.182.776-.052.192-.109.383-.17.576-.086.262-.18.526-.283.786-.172.435-.365.866-.58 1.287-.217.416-.452.823-.704 1.218-.257.399-.534.781-.825 1.148-.174.22-.354.433-.539.638-.136.15-.274.294-.414.435-.189.19-.383.372-.58.545-.322.282-.654.542-.994.771-.165.111-.33.219-.498.316-.167.097-.334.18-.497.259-.34.163-.672.286-.993.377-.2.055-.393.097-.583.124-.14.021-.277.036-.412.042-.185.009-.365.003-.539-.014-.292-.031-.568-.094-.825-.197-.254-.1-.49-.236-.703-.406-.217-.17-.41-.378-.582-.615-.103-.142-.198-.295-.283-.46-.061-.12-.118-.247-.17-.379-.07-.178-.13-.366-.182-.565-.082-.325-.141-.672-.17-1.05-.006-.086-.006-.175-.01-.262.086-.044.173-.085.263-.137" fill="#CBD6E3"/>
        <path d="M106.744 115.778c.167-.097.332-.206.496-.316.34-.23.672-.49.994-.771.198-.173.393-.354.582-.545.14-.142.278-.285.412-.434.186-.207.367-.419.541-.64.29-.366.568-.748.823-1.147.255-.394.489-.801.704-1.217.217-.422.41-.853.581-1.288.104-.262.198-.523.283-.786.063-.192.119-.384.17-.575.07-.26.132-.52.183-.777.082-.42.142-.837.17-1.246.014-.197.024-.395.024-.588 0-.104-.007-.2-.012-.298.077-.04.155-.083.233-.12.34-.165.672-.288.994-.379.197-.055.391-.097.58-.124.14-.021.278-.035.414-.042.185-.009.365-.003.54.014.29.031.566.094.824.197.252.1.487.236.702.406.217.17.41.378.582.615.102.141.197.295.282.46.062.12.119.247.171.379.07.178.131.366.182.567.083.323.143.67.17 1.047.014.183.026.367.026.56 0 .194-.012.391-.026.589-.027.41-.087.827-.17 1.246-.05.258-.112.517-.182.776-.052.192-.109.383-.17.576-.086.262-.18.526-.283.786-.172.435-.365.866-.58 1.287-.217.416-.452.823-.704 1.218-.257.399-.534.781-.825 1.148-.174.22-.354.433-.539.638-.136.15-.274.294-.414.435-.189.19-.383.372-.58.545-.322.282-.654.542-.994.771-.165.111-.33.219-.498.316-.167.097-.334.18-.497.259-.34.163-.672.286-.993.377-.2.055-.393.097-.583.124-.14.021-.277.036-.412.042-.185.009-.365.003-.539-.014-.292-.031-.568-.094-.825-.197-.254-.1-.49-.236-.703-.406-.217-.17-.41-.378-.582-.615-.103-.142-.198-.295-.283-.46-.061-.12-.118-.247-.17-.379-.07-.178-.13-.366-.182-.565-.082-.325-.141-.672-.17-1.05-.006-.086-.006-.175-.01-.262.086-.044.173-.085.263-.137z" stroke="#33475C" stroke-linecap="round" stroke-linejoin="round"/>
        <path d="M109.946 123.525v2.71c0 .632.222 1.078.582 1.286l-3.462-1.998 1.047-1.814c.575.035 1.19-.028 1.833-.184" fill="#7B97B7"/>
        <path d="M109.946 123.525v2.71c0 .632.222 1.078.582 1.286l-3.462-1.998 1.047-1.814c.575.035 1.19-.028 1.833-.184z" stroke="#33475C" stroke-linecap="round" stroke-linejoin="round"/>
        <path d="M109.229 97.54v-.001.001z" fill="#FFF"/>
        <path d="M109.229 97.54v-.001.001z" stroke="#33475C" stroke-linecap="round" stroke-linejoin="round"/>
        <path d="M111.061 97.357l5.685 3.282c-.573-.035-1.187.028-1.83.183l-5.687-3.282c.642-.157 1.256-.22 1.832-.183" fill="#CBD6E3"/>
        <path d="M111.061 97.357l5.685 3.282c-.573-.035-1.187.028-1.83.183l-5.687-3.282c.642-.157 1.256-.22 1.832-.183z" stroke="#33475C" stroke-linecap="round" stroke-linejoin="round"/>
        <path d="M116.233 93.267l4.983 2.877c-.774-.449-2.037.28-2.81 1.623l-1.318 2.282-.341.59-1.831-1.057v-.786l-.34.59-3.515-2.03 1.658-2.872c.774-1.343 2.036-2.07 2.81-1.622l.704.405" fill="#CBD6E3"/>
        <path d="M116.233 93.267l4.983 2.877c-.774-.449-2.037.28-2.81 1.623l-1.318 2.282-.341.59-1.831-1.057v-.786l-.34.59-3.515-2.03 1.658-2.872c.774-1.343 2.036-2.07 2.81-1.622l.704.405" stroke="#33475C" stroke-linecap="round" stroke-linejoin="round"/>
        <path d="M118.37 108.171c.014.181.024.366.024.56 0 .194-.01.39-.025.588-.027.41-.087.826-.17 1.246-.05.259-.112.516-.183.776-.05.193-.107.384-.17.576-.084.263-.18.525-.282.786-.17.436-.364.865-.581 1.287-.215.418-.45.824-.704 1.218-.255.398-.533.78-.823 1.147-.174.22-.355.433-.54.639-.135.15-.273.294-.414.435-.188.19-.383.372-.58.546-.323.281-.655.54-.995.77-.164.11-.33.22-.497.316-.167.098-.333.18-.497.258-.34.164-.672.286-.993.377-.2.055-.393.097-.583.125-.14.02-.277.037-.411.042-.186.01-.366.004-.54-.014-.293-.031-.569-.094-.824-.197-.255-.1-.49-.237-.704-.405-.218-.17-.41-.379-.58-.615-.105-.143-.2-.297-.285-.46-.062-.122-.119-.247-.17-.38-.07-.177-.13-.366-.182-.565-.083-.325-.142-.673-.17-1.05-.014-.182-.024-.366-.024-.56 0-.194.01-.392.024-.59.028-.41.087-.824.17-1.244.051-.259.112-.517.183-.777.05-.192.107-.382.17-.573.084-.265.179-.526.283-.788.17-.435.364-.866.581-1.286.214-.419.45-.826.704-1.22.255-.399.533-.78.823-1.146.175-.22.355-.433.54-.64.135-.147.272-.292.412-.432.19-.192.384-.375.583-.548.321-.281.652-.54.994-.77.163-.11.33-.22.496-.315.168-.098.333-.18.497-.258.34-.165.672-.288.994-.378.198-.056.392-.097.581-.126.14-.02.279-.035.413-.041.186-.01.367-.004.54.015.291.03.569.093.824.196.253.1.489.236.702.405.219.172.411.379.583.616.103.142.198.295.283.46.062.12.118.247.17.378.07.179.132.368.182.567.083.323.143.672.17 1.05m6.984-2.886v-1.146c0-.634-.223-1.08-.583-1.286-.36-.208-.858-.179-1.405.138l-2.346 1.355c-.187-.635-.44-1.198-.758-1.679l1.66-2.871c.774-1.343.774-2.8 0-3.246l-.704-.407c-.775-.448-2.037.28-2.812 1.624l-1.659 2.871c-.573-.035-1.187.027-1.83.184v-2.71c0-.632-.224-1.078-.583-1.285-.361-.208-.858-.179-1.406.138l-.993.574c-1.097.632-1.988 2.176-1.988 3.443v2.71c-.644.586-1.258 1.233-1.832 1.932l-1.658-.958c-.776-.448-2.037.28-2.813 1.623l-.702 1.218c-.775 1.343-.775 2.799 0 3.245l1.658.958c-.318.847-.57 1.702-.757 2.552l-2.347 1.355c-1.096.633-1.988 2.178-1.988 3.443v1.148c0 .632.224 1.078.584 1.285.36.21.857.179 1.404-.138l2.347-1.354c.187.634.439 1.198.757 1.678l-1.658 2.871c-.775 1.344-.775 2.8 0 3.247l.702.406c.388.224.898.154 1.407-.14.509-.294 1.018-.812 1.406-1.484l1.658-2.872c.574.037 1.188-.027 1.832-.183v2.71c0 .632.223 1.078.581 1.286.36.208.858.179 1.407-.14l.993-.573c1.096-.632 1.988-2.177 1.988-3.442v-2.71c.644-.586 1.258-1.233 1.831-1.932l1.66.958c.386.223.896.153 1.404-.14.51-.294 1.019-.812 1.407-1.484l.703-1.217c.775-1.342.775-2.8 0-3.247l-1.659-.958c.318-.847.571-1.702.758-2.551l2.346-1.355c1.097-.632 1.988-2.177 1.988-3.444" fill="#98ACC3"/>
        <path d="M118.37 108.171c.014.181.024.366.024.56 0 .194-.01.39-.025.588-.027.41-.087.826-.17 1.246-.05.259-.112.516-.183.776-.05.193-.107.384-.17.576-.084.263-.18.525-.282.786-.17.436-.364.865-.581 1.287-.215.418-.45.824-.704 1.218-.255.398-.533.78-.823 1.147-.174.22-.355.433-.54.639-.135.15-.273.294-.414.435-.188.19-.383.372-.58.546-.323.281-.655.54-.995.77-.164.11-.33.22-.497.316-.167.098-.333.18-.497.258-.34.164-.672.286-.993.377-.2.055-.393.097-.583.125-.14.02-.277.037-.411.042-.186.01-.366.004-.54-.014-.293-.031-.569-.094-.824-.197-.255-.1-.49-.237-.704-.405-.218-.17-.41-.379-.58-.615-.105-.143-.2-.297-.285-.46-.062-.122-.119-.247-.17-.38-.07-.177-.13-.366-.182-.565-.083-.325-.142-.673-.17-1.05-.014-.182-.024-.366-.024-.56 0-.194.01-.392.024-.59.028-.41.087-.824.17-1.244.051-.259.112-.517.183-.777.05-.192.107-.382.17-.573.084-.265.179-.526.283-.788.17-.435.364-.866.581-1.286.214-.419.45-.826.704-1.22.255-.399.533-.78.823-1.146.175-.22.355-.433.54-.64.135-.147.272-.292.412-.432.19-.192.384-.375.583-.548.321-.281.652-.54.994-.77.163-.11.33-.22.496-.315.168-.098.333-.18.497-.258.34-.165.672-.288.994-.378.198-.056.392-.097.581-.126.14-.02.279-.035.413-.041.186-.01.367-.004.54.015.291.03.569.093.824.196.253.1.489.236.702.405.219.172.411.379.583.616.103.142.198.295.283.46.062.12.118.247.17.378.07.179.132.368.182.567.083.323.143.672.17 1.05zm6.983-2.885v-1.146c0-.634-.223-1.08-.583-1.286-.36-.208-.858-.179-1.405.138l-2.346 1.355c-.187-.635-.44-1.198-.758-1.679l1.66-2.871c.774-1.343.774-2.8 0-3.246l-.704-.407c-.775-.448-2.037.28-2.812 1.624l-1.659 2.871c-.573-.035-1.187.027-1.83.184v-2.71c0-.632-.224-1.078-.583-1.285-.361-.208-.858-.179-1.406.138l-.993.574c-1.097.632-1.988 2.176-1.988 3.443v2.71c-.644.586-1.258 1.233-1.832 1.932l-1.658-.958c-.776-.448-2.037.28-2.813 1.623l-.702 1.218c-.775 1.343-.775 2.799 0 3.245l1.658.958c-.318.847-.57 1.702-.757 2.552l-2.347 1.355c-1.096.633-1.988 2.178-1.988 3.443v1.148c0 .632.224 1.078.584 1.285.36.21.857.179 1.404-.138l2.347-1.354c.187.634.439 1.198.757 1.678l-1.658 2.871c-.775 1.344-.775 2.8 0 3.247l.702.406c.388.224.898.154 1.407-.14.509-.294 1.018-.812 1.406-1.484l1.658-2.872c.574.037 1.188-.027 1.832-.183v2.71c0 .632.223 1.078.581 1.286.36.208.858.179 1.407-.14l.993-.573c1.096-.632 1.988-2.177 1.988-3.442v-2.71c.644-.586 1.258-1.233 1.831-1.932l1.66.958c.386.223.896.153 1.404-.14.51-.294 1.019-.812 1.407-1.484l.703-1.217c.775-1.342.775-2.8 0-3.247l-1.659-.958c.318-.847.571-1.702.758-2.551l2.346-1.355c1.097-.632 1.988-2.177 1.988-3.444z" stroke="#33475C" stroke-linecap="round" stroke-linejoin="round"/>
        <path d="M106.247 94.257l.994-.575c.547-.316 1.045-.345 1.405-.138l5.686 3.283c-.36-.207-.856-.178-1.405.14l-.994.572c-1.096.633-1.987 2.178-1.987 3.443v2.711l-5.687-3.284V97.7c0-1.266.892-2.81 1.988-3.443" fill="#CBD6E3"/>
        <path d="M106.247 94.257l.994-.575c.547-.316 1.045-.345 1.405-.138l5.686 3.283c-.36-.207-.856-.178-1.405.14l-.994.572c-1.096.633-1.987 2.178-1.987 3.443v2.711l-5.687-3.284V97.7c0-1.266.892-2.81 1.988-3.443z" stroke="#33475C" stroke-linecap="round" stroke-linejoin="round"/>
        <path d="M104.259 100.41l5.686 3.283c-.642.585-1.258 1.232-1.832 1.931l-5.686-3.283c.575-.699 1.19-1.345 1.832-1.932" fill="#CBD6E3"/>
        <path d="M104.259 100.41l5.686 3.283c-.642.585-1.258 1.232-1.832 1.931l-5.686-3.283c.575-.699 1.19-1.345 1.832-1.932z" stroke="#33475C" stroke-linecap="round" stroke-linejoin="round"/>
        <path d="M97.254 104.224l.704-1.217c.774-1.343 2.037-2.072 2.81-1.624l5.557 3.208-.008.026c-.782-.302-1.941.406-2.674 1.672l-.702 1.218c-.775 1.343-.775 2.8 0 3.246l-5.687-3.282c-.776-.447-.776-1.904 0-3.247" fill="#CBD6E3"/>
        <path d="M97.254 104.224l.704-1.217c.774-1.343 2.037-2.072 2.81-1.624l5.557 3.208-.008.026c-.782-.302-1.941.406-2.674 1.672l-.702 1.218c-.775 1.343-.775 2.8 0 3.246l-5.687-3.282c-.776-.447-.776-1.904 0-3.247z" stroke="#33475C" stroke-linecap="round" stroke-linejoin="round"/>
        <path d="M97.254 121.268l1.658-2.87v-.002l.621.359c-.011.103-.026.206-.026.306v1.147c0 .633.223 1.08.584 1.286.36.21.857.179 1.404-.138l1.273-.734 1.83 1.058-1.657 2.871c-.775 1.344-.775 2.8 0 3.247l-4.983-2.878-.704-.405c-.776-.447-.776-1.905 0-3.247" fill="#7B97B7"/>
        <path d="M97.254 121.268l1.658-2.87v-.002l.621.359c-.011.103-.026.206-.026.306v1.147c0 .633.223 1.08.584 1.286.36.21.857.179 1.404-.138l1.273-.734 1.83 1.058-1.657 2.871c-.775 1.344-.775 2.8 0 3.247l-4.983-2.878-.704-.405c-.776-.447-.776-1.905 0-3.247z" stroke="#33475C" stroke-linecap="round" stroke-linejoin="round"/>
        <path d="M93.82 116.925v-1.148c0-1.265.893-2.81 1.989-3.443l2.347-1.354 5.686 3.283-2.347 1.355c-1.096.632-1.988 2.177-1.988 3.444v1.146c0 .634.224 1.078.584 1.286l-5.687-3.282c-.36-.208-.583-.652-.583-1.287" fill="#CBD6E3"/>
        <path d="M93.82 116.925v-1.148c0-1.265.893-2.81 1.989-3.443l2.347-1.354 5.686 3.283-2.347 1.355c-1.096.632-1.988 2.177-1.988 3.444v1.146c0 .634.224 1.078.584 1.286l-5.687-3.282c-.36-.208-.583-.652-.583-1.287z" stroke="#33475C" stroke-linecap="round" stroke-linejoin="round"/>
        <path d="M98.156 110.98c.186-.85.438-1.705.756-2.553l2.244 1.297 1.785 1.03 1.658.957c-.318.848-.57 1.702-.757 2.551l-3.056-1.763-2.63-1.519z" fill="#7B97B7"/>
        <path d="M98.156 110.98c.186-.85.438-1.705.756-2.553l2.244 1.297 1.785 1.03 1.658.957c-.318.848-.57 1.702-.757 2.551l-3.056-1.763-2.63-1.519z" stroke="#33475C" stroke-linecap="round" stroke-linejoin="round"/>
        <path d="M104.599 121.68l-1.831-1.059 1.074-.618c.187.633.439 1.196.757 1.677" fill="#7B97B7"/>
        <path d="M104.599 121.68l-1.831-1.059 1.074-.618c.187.633.439 1.196.757 1.677z" stroke="#33475C" stroke-linecap="round" stroke-linejoin="round"/>
        <path d="M123.365 102.992l-2.346 1.354c-.187-.634-.44-1.197-.758-1.678l1.047-1.814 3.462 2c-.36-.209-.858-.18-1.405.138" fill="#7B97B7"/>
        <path d="M123.365 102.992l-2.346 1.354c-.187-.634-.44-1.197-.758-1.678l1.047-1.814 3.462 2c-.36-.209-.858-.18-1.405.138z" stroke="#33475C" stroke-linecap="round" stroke-linejoin="round"/>
        <path d="M57.066 155.742l11.084 6.399c2.693 1.555 7.1 1.555 9.793 0l16.721-9.654 21.618-12.481 21.62-12.481 16.72-9.654c1.347-.778 2.02-1.803 2.02-2.827 0-1.026-.673-2.05-2.02-2.828l-11.141-6.433-.197.05-86.19 49.762-.028.147z" fill="#E4EAEF"/>
        <path d="M57.066 155.742l11.084 6.399c2.693 1.555 7.1 1.555 9.793 0l16.721-9.654 21.618-12.481 21.62-12.481 16.72-9.654c1.347-.778 2.02-1.803 2.02-2.827 0-1.026-.673-2.05-2.02-2.828l-11.141-6.433-.197.05-86.19 49.762-.028.147z" stroke="#33475C" stroke-linecap="round" stroke-linejoin="round"/>
        <path d="M122.576 129.83l-10.485-6.054-24.405 14.09 10.485 6.054c1.156.667 3.047.667 4.204 0l20.2-11.663c1.157-.668 1.157-1.759 0-2.427" fill="#EAF0F6"/>
        <path d="M122.576 129.83l-10.485-6.054-24.405 14.09 10.485 6.054c1.156.667 3.047.667 4.204 0l20.2-11.663c1.157-.668 1.157-1.759 0-2.427z" stroke="#33475C"/>
        <path d="M154.594 117.82l-16.721 9.655-21.618 12.48-21.62 12.482-16.72 9.655c-2.694 1.555-7.1 1.555-9.794 0l-16.72-9.655-21.62-12.481-21.617-12.48s0 4.524 3.678 6.646h-.001l17.94 10.358 21.62 12.48 16.72 9.656c2.694 1.555 7.1 1.555 9.793 0l16.721-9.655 21.62-12.481 21.618-12.481 16.72-9.654c1.347-.777 2.02-1.803 2.02-2.828v-4.523c0 1.024-.673 2.05-2.02 2.827" fill="#E4EAEF"/>
        <path d="M154.594 117.82l-16.721 9.655-21.618 12.48-21.62 12.482-16.72 9.655c-2.694 1.555-7.1 1.555-9.794 0l-16.72-9.655-21.62-12.481-21.617-12.48s0 4.524 3.678 6.646h-.001l17.94 10.358 21.62 12.48 16.72 9.656c2.694 1.555 7.1 1.555 9.793 0l16.721-9.655 21.62-12.481 21.618-12.481 16.72-9.654c1.347-.777 2.02-1.803 2.02-2.828v-4.523c0 1.024-.673 2.05-2.02 2.827z" stroke="#33475C" stroke-linecap="round" stroke-linejoin="round"/>
        <path d="M64.89 42.087c1.326.467 2.761 1.361 2.727 2.654-.028 1.081-1.095 1.89-2.144 2.398-1.05.51-2.238.922-2.917 1.81-.8 1.051-.64 2.524.051 3.636.19.305.427.575.679.835L89.65 38.2V16.142c0-1.868-1.324-2.632-2.94-1.697L66.075 26.358c.379.401.678.852.855 1.366.576 1.681-.371 3.491-1.597 4.856-1.225 1.365-2.765 2.518-3.704 4.061-.646 1.057-.961 2.41-.297 3.46.707 1.122 2.231 1.518 3.558 1.986" fill="#F9D28C"/>
        <path d="M13.15 60.306v54.725c0 .101.019.181.026.274l20.756-44.818c.05-.107.13-.195.23-.253l1.365-.787c-1.037-2.56-.7-5.846 1.533-7.436 1.514-1.075 3.93-1.659 3.976-3.515.056-2.334-3.687-2.681-4.746-4.762-.819-1.605.292-3.5 1.455-4.878 1.161-1.379 2.517-2.96 2.2-4.735-.141-.793-.617-1.456-1.255-1.952L16.089 55.218c-1.616.933-2.938 3.224-2.938 5.088" fill="#FBE1B2"/>
        <path d="M64.89 42.087c-1.327-.468-2.851-.864-3.558-1.986-.664-1.05-.349-2.403.297-3.46.939-1.543 2.48-2.696 3.704-4.061 1.226-1.365 2.173-3.175 1.597-4.856-.177-.514-.476-.965-.855-1.366L38.69 42.168c.636.498 1.114 1.162 1.255 1.953.317 1.774-1.039 3.358-2.2 4.735-1.163 1.378-2.274 3.271-1.455 4.879 1.059 2.08 4.802 2.427 4.746 4.762-.046 1.855-2.465 2.437-3.975 3.514-2.234 1.59-2.572 4.876-1.534 7.436L63.286 53.42c-.252-.26-.489-.53-.679-.835-.692-1.112-.851-2.585-.05-3.636.678-.888 1.866-1.3 2.916-1.81 1.049-.508 2.116-1.317 2.144-2.398.034-1.292-1.4-2.187-2.727-2.654" fill="#FFF"/>
        <path d="M138.995 107.658l3.057-1.767-20.581-82.705c-.227-.91-1.146-1.461-2.055-1.237-.91.225-1.464 1.146-1.238 2.056l20.817 83.653z" fill="#FBE1B2"/>
    </g>
</svg>
